M48
; DRILL file {KiCad 8.0.4} date 2025-04-02T23:56:51+0200
; FORMAT={-:-/ absolute / inch / decimal}
; #@! TF.CreationDate,2025-04-02T23:56:51+02:00
; #@! TF.GenerationSoftware,Kicad,Pcbnew,8.0.4
; #@! TF.FileFunction,NonPlated,1,2,NPTH
FMAT,2
INCH
; #@! TA.AperFunction,NonPlated,NPTH,ComponentDrill
T1C0.0039
; #@! TA.AperFunction,NonPlated,NPTH,ComponentDrill
T2C0.0354
; #@! TA.AperFunction,NonPlated,NPTH,ComponentDrill
T3C0.0669
; #@! TA.AperFunction,NonPlated,NPTH,ComponentDrill
T4C0.0748
; #@! TA.AperFunction,NonPlated,NPTH,ComponentDrill
T5C0.1181
; #@! TA.AperFunction,NonPlated,NPTH,ComponentDrill
T6C0.1575
%
G90
G05
T1
X4.6563Y-4.0125
X4.9509Y-3.9499
X5.1853Y-2.9033
X5.3412Y-3.6369
X5.4799Y-2.8407
X5.4972Y-4.3705
X5.6358Y-3.5743
X5.7918Y-4.3079
X6.0801Y-2.2005
X6.1454Y-2.9477
X6.2108Y-3.6948
X6.3801Y-2.1743
X6.4455Y-2.9214
X6.5108Y-3.6686
X7.0059Y-1.9242
X7.0059Y-3.4242
X7.0059Y-2.6742
X7.3071Y-1.9242
X7.3071Y-3.4242
X7.3071Y-2.6742
X7.7539Y-2.2242
X7.7539Y-3.7242
X7.7539Y-2.9742
X8.0551Y-2.2242
X8.0551Y-3.7242
X8.0551Y-2.9742
X8.0914Y-4.5867
X8.3926Y-4.5867
X8.502Y-3.7992
X8.502Y-3.0492
X8.502Y-2.2992
X8.8031Y-3.7992
X8.8031Y-3.0492
X8.8031Y-2.2992
X8.996Y-4.6662
X9.2869Y-4.7441
T2
X7.6599Y-5.0418
X7.7781Y-5.0418
T3
X4.6291Y-4.1222
X5.0204Y-4.039
X5.1581Y-3.0129
X5.314Y-3.7465
X5.47Y-4.4802
X5.5494Y-2.9298
X5.7053Y-3.6634
X5.8612Y-4.397
X6.0397Y-2.306
X6.105Y-3.0531
X6.1704Y-3.8003
X6.4382Y-2.2711
X6.5035Y-3.0183
X6.5689Y-3.7654
X6.9565Y-2.0258
X6.9565Y-3.5258
X6.9565Y-2.7758
X7.3565Y-2.0258
X7.3565Y-3.5258
X7.3565Y-2.7758
X7.7045Y-2.3258
X7.7045Y-3.8258
X7.7045Y-3.0758
X8.042Y-4.6883
X8.1045Y-2.3258
X8.1045Y-3.8258
X8.1045Y-3.0758
X8.442Y-4.6883
X8.4526Y-3.9008
X8.4526Y-3.1508
X8.4526Y-2.4008
X8.8526Y-3.9008
X8.8526Y-3.1508
X8.8526Y-2.4008
X8.9219Y-4.7515
X9.3083Y-4.855
T4
X4.613Y-4.1256
X5.0366Y-4.0356
X5.1419Y-3.0164
X5.2979Y-3.75
X5.4538Y-4.4836
X5.5655Y-2.9263
X5.7215Y-3.6599
X5.8774Y-4.3936
X6.0232Y-2.3074
X6.0886Y-3.0546
X6.1539Y-3.8017
X6.4546Y-2.2697
X6.52Y-3.0168
X6.5854Y-3.764
X6.94Y-2.0258
X6.94Y-3.5258
X6.94Y-2.7758
X7.373Y-2.0258
X7.373Y-3.5258
X7.373Y-2.7758
X7.688Y-2.3258
X7.688Y-3.8258
X7.688Y-3.0758
X8.0255Y-4.6883
X8.1211Y-2.3258
X8.1211Y-3.8258
X8.1211Y-3.0758
X8.436Y-3.9008
X8.436Y-3.1508
X8.436Y-2.4008
X8.4586Y-4.6883
X8.8691Y-3.9008
X8.8691Y-3.1508
X8.8691Y-2.4008
X8.906Y-4.7472
X9.3243Y-4.8593
T5
X4.6572Y-4.0139
X4.6625Y-4.264
X4.6854Y-3.9057
X4.8731Y-4.3078
X4.881Y-3.8642
X4.9507Y-3.9516
X4.9507Y-3.9516
X5.0476Y-4.1821
X5.1862Y-2.9047
X5.1915Y-3.1548
X5.2143Y-2.7965
X5.3422Y-3.6383
X5.3474Y-3.8884
X5.3703Y-3.5301
X5.402Y-3.1986
X5.41Y-2.7549
X5.4797Y-2.8424
X5.4797Y-2.8424
X5.4981Y-4.3719
X5.5033Y-4.622
X5.5262Y-4.2637
X5.558Y-3.9322
X5.5659Y-3.4885
X5.5766Y-3.0729
X5.6356Y-3.576
X5.6356Y-3.576
X5.7139Y-4.6658
X5.7218Y-4.2222
X5.7325Y-3.8065
X5.7915Y-4.3096
X5.7915Y-4.3096
X5.8884Y-4.5401
X6.0555Y-2.4508
X6.0808Y-2.202
X6.1209Y-3.198
X6.1219Y-2.098
X6.1461Y-2.9492
X6.1862Y-3.9451
X6.1872Y-2.8452
X6.2115Y-3.6963
X6.2526Y-3.5923
X6.2592Y-2.52
X6.3211Y-2.0806
X6.3245Y-3.2671
X6.3796Y-2.1759
X6.3796Y-2.1759
X6.3865Y-2.8278
X6.3899Y-4.0143
X6.445Y-2.923
X6.445Y-2.923
X6.4477Y-2.4165
X6.4518Y-3.5749
X6.5104Y-3.6702
X6.5104Y-3.6702
X6.5131Y-3.1637
X6.5785Y-3.9108
X6.9596Y-2.1715
X6.9596Y-3.6715
X6.9596Y-2.9215
X7.0065Y-1.9258
X7.0065Y-3.4258
X7.0065Y-2.6758
X7.0565Y-1.8258
X7.0565Y-3.3258
X7.0565Y-2.5758
X7.1565Y-2.2581
X7.1565Y-3.7581
X7.1565Y-3.0081
X7.2565Y-1.8258
X7.2565Y-3.3258
X7.2565Y-2.5758
X7.3065Y-1.9258
X7.3065Y-1.9258
X7.3065Y-3.4258
X7.3065Y-3.4258
X7.3065Y-2.6758
X7.3065Y-2.6758
X7.3533Y-2.1715
X7.3533Y-3.6715
X7.3533Y-2.9215
X7.7077Y-2.4715
X7.7077Y-3.9715
X7.7077Y-3.2215
X7.7545Y-2.2258
X7.7545Y-3.7258
X7.7545Y-2.9758
X7.8045Y-2.1258
X7.8045Y-3.6258
X7.8045Y-2.8758
X7.9045Y-2.5581
X7.9045Y-4.0581
X7.9045Y-3.3081
X8.0045Y-2.1258
X8.0045Y-3.6258
X8.0045Y-2.8758
X8.0452Y-4.834
X8.0545Y-2.2258
X8.0545Y-2.2258
X8.0545Y-3.7258
X8.0545Y-3.7258
X8.0545Y-2.9758
X8.0545Y-2.9758
X8.092Y-4.5883
X8.1014Y-2.4715
X8.1014Y-3.9715
X8.1014Y-3.2215
X8.142Y-4.4883
X8.242Y-4.9206
X8.342Y-4.4883
X8.392Y-4.5883
X8.392Y-4.5883
X8.4389Y-4.834
X8.4557Y-4.0465
X8.4557Y-3.2965
X8.4557Y-2.5465
X8.5026Y-3.8008
X8.5026Y-3.0508
X8.5026Y-2.3008
X8.5526Y-3.7008
X8.5526Y-2.9508
X8.5526Y-2.2008
X8.6526Y-4.1331
X8.6526Y-3.3831
X8.6526Y-2.6331
X8.7526Y-3.7008
X8.7526Y-2.9508
X8.7526Y-2.2008
X8.8026Y-3.8008
X8.8026Y-3.8008
X8.8026Y-3.0508
X8.8026Y-3.0508
X8.8026Y-2.3008
X8.8026Y-2.3008
X8.8494Y-4.0465
X8.8494Y-3.2965
X8.8494Y-2.5465
X8.8873Y-4.893
X8.9961Y-4.6678
X9.055Y-5.0276
X9.0703Y-4.5842
X9.2635Y-4.636
X9.2676Y-4.9949
X9.2859Y-4.7455
X9.2859Y-4.7455
T6
X4.8248Y-4.0806
X5.3537Y-2.9714
X5.5097Y-3.705
X5.6656Y-4.4386
X6.2389Y-2.2886
X6.3043Y-3.0357
X6.3697Y-3.7829
X7.1565Y-2.0258
X7.1565Y-3.5258
X7.1565Y-2.7758
X7.9045Y-2.3258
X7.9045Y-3.8258
X7.9045Y-3.0758
X8.242Y-4.6883
X8.6526Y-3.9008
X8.6526Y-3.1508
X8.6526Y-2.4008
X9.1151Y-4.8033
M30
