%TF.GenerationSoftware,KiCad,Pcbnew,8.0.4*%
%TF.CreationDate,2025-04-02T23:57:16+02:00*%
%TF.ProjectId,reversible_split,72657665-7273-4696-926c-655f73706c69,v1.0.0*%
%TF.SameCoordinates,Original*%
%TF.FileFunction,Profile,NP*%
%FSLAX46Y46*%
G04 Gerber Fmt 4.6, Leading zero omitted, Abs format (unit mm)*
G04 Created by KiCad (PCBNEW 8.0.4) date 2025-04-02 23:57:16*
%MOMM*%
%LPD*%
G01*
G04 APERTURE LIST*
%TA.AperFunction,Profile*%
%ADD10C,0.150000*%
%TD*%
G04 APERTURE END LIST*
D10*
X219320964Y-129655522D02*
G75*
G02*
X219515085Y-129681063I36J-750178D01*
G01*
X147131717Y-49309230D02*
X148193363Y-61443899D01*
X239160702Y-134168649D02*
G75*
G02*
X238242146Y-134698974I-724402J194049D01*
G01*
X115175811Y-115973840D02*
X132293389Y-112335388D01*
X171249989Y-45759045D02*
X171249992Y-41680524D01*
X128494532Y-90855839D02*
G75*
G02*
X127916858Y-91745433I-733632J-155961D01*
G01*
X219515081Y-129681077D02*
X238242144Y-134698980D01*
X230855875Y-110927274D02*
G75*
G02*
X230300020Y-110202828I194325J724574D01*
G01*
X137569988Y-129608021D02*
X137569989Y-129655522D01*
X191549990Y-40930521D02*
X171999991Y-40930524D01*
X243690282Y-114366237D02*
G75*
G02*
X244220637Y-115284805I-194282J-724563D01*
G01*
X147813494Y-48496722D02*
X170565355Y-46506190D01*
X171249992Y-41680524D02*
G75*
G02*
X171999991Y-40930492I750008J24D01*
G01*
X124235138Y-67209689D02*
X147602151Y-62242880D01*
X192299992Y-47800523D02*
X192299991Y-41680521D01*
X210549992Y-48550523D02*
X193049993Y-48550521D01*
X147131717Y-49309230D02*
G75*
G02*
X147813493Y-48496706I747083J65430D01*
G01*
X193049993Y-48550521D02*
G75*
G02*
X192299979Y-47800523I7J750021D01*
G01*
X230299992Y-110202828D02*
X230299987Y-51205523D01*
X123657464Y-68099236D02*
G75*
G02*
X124235134Y-67209670I733636J155936D01*
G01*
X115175811Y-115973840D02*
G75*
G02*
X114286346Y-115396147I-155911J733540D01*
G01*
X191549990Y-40930521D02*
G75*
G02*
X192299979Y-41680521I10J-749979D01*
G01*
X211299991Y-49705521D02*
X211299993Y-49300524D01*
X137338894Y-129608022D02*
X137569988Y-129608021D01*
X123657464Y-68099236D02*
X128494532Y-90855839D01*
X127916847Y-91745383D02*
X110799269Y-95383837D01*
X210549992Y-48550523D02*
G75*
G02*
X211299977Y-49300524I8J-749977D01*
G01*
X239160702Y-134168649D02*
X244220610Y-115284798D01*
X212049993Y-50455524D02*
G75*
G02*
X211299976Y-49705521I7J750024D01*
G01*
X137338894Y-129608022D02*
G75*
G02*
X136605273Y-129013961I6J750022D01*
G01*
X110221591Y-96273382D02*
G75*
G02*
X110799282Y-95383899I733609J155882D01*
G01*
X171249989Y-45759045D02*
G75*
G02*
X170565359Y-46506236I-749989J-55D01*
G01*
X229549990Y-50455519D02*
X212049993Y-50455524D01*
X110221591Y-96273382D02*
X114286261Y-115396165D01*
X229549990Y-50455519D02*
G75*
G02*
X230299981Y-51205523I10J-749981D01*
G01*
X137569989Y-129655522D02*
X219320964Y-129655522D01*
X132293389Y-112335388D02*
G75*
G02*
X133182908Y-112913072I155911J-733612D01*
G01*
X133182933Y-112913067D02*
X136605283Y-129013959D01*
X148193363Y-61443899D02*
G75*
G02*
X147602161Y-62242925I-747163J-65401D01*
G01*
X243690282Y-114366237D02*
X230855875Y-110927274D01*
M02*
