%TF.GenerationSoftware,KiCad,Pcbnew,8.0.4*%
%TF.CreationDate,2025-04-02T23:57:16+02:00*%
%TF.ProjectId,reversible_split,72657665-7273-4696-926c-655f73706c69,v1.0.0*%
%TF.SameCoordinates,Original*%
%TF.FileFunction,Legend,Top*%
%TF.FilePolarity,Positive*%
%FSLAX46Y46*%
G04 Gerber Fmt 4.6, Leading zero omitted, Abs format (unit mm)*
G04 Created by KiCad (PCBNEW 8.0.4) date 2025-04-02 23:57:16*
%MOMM*%
%LPD*%
G01*
G04 APERTURE LIST*
%ADD10C,0.300000*%
%ADD11C,0.400000*%
%ADD12C,0.150000*%
%ADD13C,0.120000*%
%ADD14C,0.100000*%
G04 APERTURE END LIST*
D10*
X148745582Y-127600828D02*
X148933082Y-126100828D01*
X148861653Y-126672257D02*
X149013439Y-126600828D01*
X149013439Y-126600828D02*
X149299153Y-126600828D01*
X149299153Y-126600828D02*
X149433082Y-126672257D01*
X149433082Y-126672257D02*
X149495582Y-126743685D01*
X149495582Y-126743685D02*
X149549153Y-126886542D01*
X149549153Y-126886542D02*
X149495582Y-127315114D01*
X149495582Y-127315114D02*
X149406296Y-127457971D01*
X149406296Y-127457971D02*
X149325939Y-127529400D01*
X149325939Y-127529400D02*
X149174153Y-127600828D01*
X149174153Y-127600828D02*
X148888439Y-127600828D01*
X148888439Y-127600828D02*
X148754510Y-127529400D01*
X150084868Y-126600828D02*
X150317011Y-127600828D01*
X150799153Y-126600828D02*
X150317011Y-127600828D01*
X150317011Y-127600828D02*
X150129511Y-127957971D01*
X150129511Y-127957971D02*
X150049153Y-128029400D01*
X150049153Y-128029400D02*
X149897368Y-128100828D01*
X152513439Y-126600828D02*
X152352725Y-127886542D01*
X152352725Y-127886542D02*
X152263439Y-128029400D01*
X152263439Y-128029400D02*
X152111653Y-128100828D01*
X152111653Y-128100828D02*
X152040225Y-128100828D01*
X152575939Y-126100828D02*
X152495582Y-126172257D01*
X152495582Y-126172257D02*
X152558082Y-126243685D01*
X152558082Y-126243685D02*
X152638439Y-126172257D01*
X152638439Y-126172257D02*
X152575939Y-126100828D01*
X152575939Y-126100828D02*
X152558082Y-126243685D01*
X153013439Y-126600828D02*
X153584868Y-126600828D01*
X153102725Y-127600828D02*
X153263439Y-126315114D01*
X153263439Y-126315114D02*
X153352725Y-126172257D01*
X153352725Y-126172257D02*
X153504511Y-126100828D01*
X153504511Y-126100828D02*
X153647368Y-126100828D01*
X154540225Y-127529400D02*
X154388439Y-127600828D01*
X154388439Y-127600828D02*
X154102725Y-127600828D01*
X154102725Y-127600828D02*
X153968796Y-127529400D01*
X153968796Y-127529400D02*
X153915225Y-127386542D01*
X153915225Y-127386542D02*
X153986654Y-126815114D01*
X153986654Y-126815114D02*
X154075939Y-126672257D01*
X154075939Y-126672257D02*
X154227725Y-126600828D01*
X154227725Y-126600828D02*
X154513439Y-126600828D01*
X154513439Y-126600828D02*
X154647368Y-126672257D01*
X154647368Y-126672257D02*
X154700939Y-126815114D01*
X154700939Y-126815114D02*
X154683082Y-126957971D01*
X154683082Y-126957971D02*
X153950939Y-127100828D01*
X155459868Y-127600828D02*
X155325939Y-127529400D01*
X155325939Y-127529400D02*
X155272368Y-127386542D01*
X155272368Y-127386542D02*
X155433082Y-126100828D01*
X156031296Y-127600828D02*
X156156296Y-126600828D01*
X156218796Y-126100828D02*
X156138439Y-126172257D01*
X156138439Y-126172257D02*
X156200939Y-126243685D01*
X156200939Y-126243685D02*
X156281296Y-126172257D01*
X156281296Y-126172257D02*
X156218796Y-126100828D01*
X156218796Y-126100828D02*
X156200939Y-126243685D01*
X156602725Y-127600828D02*
X157513439Y-126600828D01*
X156727725Y-126600828D02*
X157388439Y-127600828D01*
X157959868Y-127600828D02*
X158147368Y-126100828D01*
X158602725Y-127600828D02*
X158700939Y-126815114D01*
X158700939Y-126815114D02*
X158647368Y-126672257D01*
X158647368Y-126672257D02*
X158513439Y-126600828D01*
X158513439Y-126600828D02*
X158299154Y-126600828D01*
X158299154Y-126600828D02*
X158147368Y-126672257D01*
X158147368Y-126672257D02*
X158067011Y-126743685D01*
D11*
X145724509Y-124654721D02*
X146010223Y-124749959D01*
X146010223Y-124749959D02*
X146486414Y-124749959D01*
X146486414Y-124749959D02*
X146676890Y-124654721D01*
X146676890Y-124654721D02*
X146772128Y-124559482D01*
X146772128Y-124559482D02*
X146867366Y-124369006D01*
X146867366Y-124369006D02*
X146867366Y-124178530D01*
X146867366Y-124178530D02*
X146772128Y-123988054D01*
X146772128Y-123988054D02*
X146676890Y-123892816D01*
X146676890Y-123892816D02*
X146486414Y-123797578D01*
X146486414Y-123797578D02*
X146105461Y-123702340D01*
X146105461Y-123702340D02*
X145914985Y-123607101D01*
X145914985Y-123607101D02*
X145819747Y-123511863D01*
X145819747Y-123511863D02*
X145724509Y-123321387D01*
X145724509Y-123321387D02*
X145724509Y-123130911D01*
X145724509Y-123130911D02*
X145819747Y-122940435D01*
X145819747Y-122940435D02*
X145914985Y-122845197D01*
X145914985Y-122845197D02*
X146105461Y-122749959D01*
X146105461Y-122749959D02*
X146581652Y-122749959D01*
X146581652Y-122749959D02*
X146867366Y-122845197D01*
X147724509Y-123416625D02*
X147724509Y-125416625D01*
X147724509Y-123511863D02*
X147914985Y-123416625D01*
X147914985Y-123416625D02*
X148295938Y-123416625D01*
X148295938Y-123416625D02*
X148486414Y-123511863D01*
X148486414Y-123511863D02*
X148581652Y-123607101D01*
X148581652Y-123607101D02*
X148676890Y-123797578D01*
X148676890Y-123797578D02*
X148676890Y-124369006D01*
X148676890Y-124369006D02*
X148581652Y-124559482D01*
X148581652Y-124559482D02*
X148486414Y-124654721D01*
X148486414Y-124654721D02*
X148295938Y-124749959D01*
X148295938Y-124749959D02*
X147914985Y-124749959D01*
X147914985Y-124749959D02*
X147724509Y-124654721D01*
X149819747Y-124749959D02*
X149629271Y-124654721D01*
X149629271Y-124654721D02*
X149534033Y-124464244D01*
X149534033Y-124464244D02*
X149534033Y-122749959D01*
X151438795Y-124749959D02*
X151438795Y-123702340D01*
X151438795Y-123702340D02*
X151343557Y-123511863D01*
X151343557Y-123511863D02*
X151153081Y-123416625D01*
X151153081Y-123416625D02*
X150772128Y-123416625D01*
X150772128Y-123416625D02*
X150581652Y-123511863D01*
X151438795Y-124654721D02*
X151248319Y-124749959D01*
X151248319Y-124749959D02*
X150772128Y-124749959D01*
X150772128Y-124749959D02*
X150581652Y-124654721D01*
X150581652Y-124654721D02*
X150486414Y-124464244D01*
X150486414Y-124464244D02*
X150486414Y-124273768D01*
X150486414Y-124273768D02*
X150581652Y-124083292D01*
X150581652Y-124083292D02*
X150772128Y-123988054D01*
X150772128Y-123988054D02*
X151248319Y-123988054D01*
X151248319Y-123988054D02*
X151438795Y-123892816D01*
X152200700Y-123416625D02*
X152676890Y-124749959D01*
X153153081Y-123416625D02*
X152676890Y-124749959D01*
X152676890Y-124749959D02*
X152486414Y-125226149D01*
X152486414Y-125226149D02*
X152391176Y-125321387D01*
X152391176Y-125321387D02*
X152200700Y-125416625D01*
X154581653Y-123702340D02*
X154867367Y-123797578D01*
X154867367Y-123797578D02*
X154962605Y-123892816D01*
X154962605Y-123892816D02*
X155057843Y-124083292D01*
X155057843Y-124083292D02*
X155057843Y-124369006D01*
X155057843Y-124369006D02*
X154962605Y-124559482D01*
X154962605Y-124559482D02*
X154867367Y-124654721D01*
X154867367Y-124654721D02*
X154676891Y-124749959D01*
X154676891Y-124749959D02*
X153914986Y-124749959D01*
X153914986Y-124749959D02*
X153914986Y-122749959D01*
X153914986Y-122749959D02*
X154581653Y-122749959D01*
X154581653Y-122749959D02*
X154772129Y-122845197D01*
X154772129Y-122845197D02*
X154867367Y-122940435D01*
X154867367Y-122940435D02*
X154962605Y-123130911D01*
X154962605Y-123130911D02*
X154962605Y-123321387D01*
X154962605Y-123321387D02*
X154867367Y-123511863D01*
X154867367Y-123511863D02*
X154772129Y-123607101D01*
X154772129Y-123607101D02*
X154581653Y-123702340D01*
X154581653Y-123702340D02*
X153914986Y-123702340D01*
X155914986Y-124749959D02*
X155914986Y-123416625D01*
X155914986Y-123797578D02*
X156010224Y-123607101D01*
X156010224Y-123607101D02*
X156105462Y-123511863D01*
X156105462Y-123511863D02*
X156295938Y-123416625D01*
X156295938Y-123416625D02*
X156486415Y-123416625D01*
X157914986Y-124654721D02*
X157724510Y-124749959D01*
X157724510Y-124749959D02*
X157343557Y-124749959D01*
X157343557Y-124749959D02*
X157153081Y-124654721D01*
X157153081Y-124654721D02*
X157057843Y-124464244D01*
X157057843Y-124464244D02*
X157057843Y-123702340D01*
X157057843Y-123702340D02*
X157153081Y-123511863D01*
X157153081Y-123511863D02*
X157343557Y-123416625D01*
X157343557Y-123416625D02*
X157724510Y-123416625D01*
X157724510Y-123416625D02*
X157914986Y-123511863D01*
X157914986Y-123511863D02*
X158010224Y-123702340D01*
X158010224Y-123702340D02*
X158010224Y-123892816D01*
X158010224Y-123892816D02*
X157057843Y-124083292D01*
X159724510Y-124749959D02*
X159724510Y-123702340D01*
X159724510Y-123702340D02*
X159629272Y-123511863D01*
X159629272Y-123511863D02*
X159438796Y-123416625D01*
X159438796Y-123416625D02*
X159057843Y-123416625D01*
X159057843Y-123416625D02*
X158867367Y-123511863D01*
X159724510Y-124654721D02*
X159534034Y-124749959D01*
X159534034Y-124749959D02*
X159057843Y-124749959D01*
X159057843Y-124749959D02*
X158867367Y-124654721D01*
X158867367Y-124654721D02*
X158772129Y-124464244D01*
X158772129Y-124464244D02*
X158772129Y-124273768D01*
X158772129Y-124273768D02*
X158867367Y-124083292D01*
X158867367Y-124083292D02*
X159057843Y-123988054D01*
X159057843Y-123988054D02*
X159534034Y-123988054D01*
X159534034Y-123988054D02*
X159724510Y-123892816D01*
X160676891Y-124749959D02*
X160676891Y-122749959D01*
X160867367Y-123988054D02*
X161438796Y-124749959D01*
X161438796Y-123416625D02*
X160676891Y-124178530D01*
X163629273Y-123416625D02*
X164105463Y-124749959D01*
X164105463Y-124749959D02*
X164581654Y-123416625D01*
X165248321Y-122940435D02*
X165343559Y-122845197D01*
X165343559Y-122845197D02*
X165534035Y-122749959D01*
X165534035Y-122749959D02*
X166010226Y-122749959D01*
X166010226Y-122749959D02*
X166200702Y-122845197D01*
X166200702Y-122845197D02*
X166295940Y-122940435D01*
X166295940Y-122940435D02*
X166391178Y-123130911D01*
X166391178Y-123130911D02*
X166391178Y-123321387D01*
X166391178Y-123321387D02*
X166295940Y-123607101D01*
X166295940Y-123607101D02*
X165153083Y-124749959D01*
X165153083Y-124749959D02*
X166391178Y-124749959D01*
X167248321Y-124559482D02*
X167343559Y-124654721D01*
X167343559Y-124654721D02*
X167248321Y-124749959D01*
X167248321Y-124749959D02*
X167153083Y-124654721D01*
X167153083Y-124654721D02*
X167248321Y-124559482D01*
X167248321Y-124559482D02*
X167248321Y-124749959D01*
X168581654Y-122749959D02*
X168772131Y-122749959D01*
X168772131Y-122749959D02*
X168962607Y-122845197D01*
X168962607Y-122845197D02*
X169057845Y-122940435D01*
X169057845Y-122940435D02*
X169153083Y-123130911D01*
X169153083Y-123130911D02*
X169248321Y-123511863D01*
X169248321Y-123511863D02*
X169248321Y-123988054D01*
X169248321Y-123988054D02*
X169153083Y-124369006D01*
X169153083Y-124369006D02*
X169057845Y-124559482D01*
X169057845Y-124559482D02*
X168962607Y-124654721D01*
X168962607Y-124654721D02*
X168772131Y-124749959D01*
X168772131Y-124749959D02*
X168581654Y-124749959D01*
X168581654Y-124749959D02*
X168391178Y-124654721D01*
X168391178Y-124654721D02*
X168295940Y-124559482D01*
X168295940Y-124559482D02*
X168200702Y-124369006D01*
X168200702Y-124369006D02*
X168105464Y-123988054D01*
X168105464Y-123988054D02*
X168105464Y-123511863D01*
X168105464Y-123511863D02*
X168200702Y-123130911D01*
X168200702Y-123130911D02*
X168295940Y-122940435D01*
X168295940Y-122940435D02*
X168391178Y-122845197D01*
X168391178Y-122845197D02*
X168581654Y-122749959D01*
X170105464Y-124559482D02*
X170200702Y-124654721D01*
X170200702Y-124654721D02*
X170105464Y-124749959D01*
X170105464Y-124749959D02*
X170010226Y-124654721D01*
X170010226Y-124654721D02*
X170105464Y-124559482D01*
X170105464Y-124559482D02*
X170105464Y-124749959D01*
X171438797Y-122749959D02*
X171629274Y-122749959D01*
X171629274Y-122749959D02*
X171819750Y-122845197D01*
X171819750Y-122845197D02*
X171914988Y-122940435D01*
X171914988Y-122940435D02*
X172010226Y-123130911D01*
X172010226Y-123130911D02*
X172105464Y-123511863D01*
X172105464Y-123511863D02*
X172105464Y-123988054D01*
X172105464Y-123988054D02*
X172010226Y-124369006D01*
X172010226Y-124369006D02*
X171914988Y-124559482D01*
X171914988Y-124559482D02*
X171819750Y-124654721D01*
X171819750Y-124654721D02*
X171629274Y-124749959D01*
X171629274Y-124749959D02*
X171438797Y-124749959D01*
X171438797Y-124749959D02*
X171248321Y-124654721D01*
X171248321Y-124654721D02*
X171153083Y-124559482D01*
X171153083Y-124559482D02*
X171057845Y-124369006D01*
X171057845Y-124369006D02*
X170962607Y-123988054D01*
X170962607Y-123988054D02*
X170962607Y-123511863D01*
X170962607Y-123511863D02*
X171057845Y-123130911D01*
X171057845Y-123130911D02*
X171153083Y-122940435D01*
X171153083Y-122940435D02*
X171248321Y-122845197D01*
X171248321Y-122845197D02*
X171438797Y-122749959D01*
D12*
X174394035Y-128782093D02*
X173917845Y-128782093D01*
X173917845Y-128782093D02*
X173917845Y-127782093D01*
X175774988Y-127782093D02*
X175774988Y-128496378D01*
X175774988Y-128496378D02*
X175727369Y-128639235D01*
X175727369Y-128639235D02*
X175632131Y-128734474D01*
X175632131Y-128734474D02*
X175489274Y-128782093D01*
X175489274Y-128782093D02*
X175394036Y-128782093D01*
X176251179Y-128782093D02*
X176251179Y-128115426D01*
X176251179Y-128210664D02*
X176298798Y-128163045D01*
X176298798Y-128163045D02*
X176394036Y-128115426D01*
X176394036Y-128115426D02*
X176536893Y-128115426D01*
X176536893Y-128115426D02*
X176632131Y-128163045D01*
X176632131Y-128163045D02*
X176679750Y-128258283D01*
X176679750Y-128258283D02*
X176679750Y-128782093D01*
X176679750Y-128258283D02*
X176727369Y-128163045D01*
X176727369Y-128163045D02*
X176822607Y-128115426D01*
X176822607Y-128115426D02*
X176965464Y-128115426D01*
X176965464Y-128115426D02*
X177060703Y-128163045D01*
X177060703Y-128163045D02*
X177108322Y-128258283D01*
X177108322Y-128258283D02*
X177108322Y-128782093D01*
X177584512Y-128115426D02*
X177584512Y-129115426D01*
X177584512Y-128163045D02*
X177679750Y-128115426D01*
X177679750Y-128115426D02*
X177870226Y-128115426D01*
X177870226Y-128115426D02*
X177965464Y-128163045D01*
X177965464Y-128163045D02*
X178013083Y-128210664D01*
X178013083Y-128210664D02*
X178060702Y-128305902D01*
X178060702Y-128305902D02*
X178060702Y-128591616D01*
X178060702Y-128591616D02*
X178013083Y-128686854D01*
X178013083Y-128686854D02*
X177965464Y-128734474D01*
X177965464Y-128734474D02*
X177870226Y-128782093D01*
X177870226Y-128782093D02*
X177679750Y-128782093D01*
X177679750Y-128782093D02*
X177584512Y-128734474D01*
X178441655Y-128734474D02*
X178536893Y-128782093D01*
X178536893Y-128782093D02*
X178727369Y-128782093D01*
X178727369Y-128782093D02*
X178822607Y-128734474D01*
X178822607Y-128734474D02*
X178870226Y-128639235D01*
X178870226Y-128639235D02*
X178870226Y-128591616D01*
X178870226Y-128591616D02*
X178822607Y-128496378D01*
X178822607Y-128496378D02*
X178727369Y-128448759D01*
X178727369Y-128448759D02*
X178584512Y-128448759D01*
X178584512Y-128448759D02*
X178489274Y-128401140D01*
X178489274Y-128401140D02*
X178441655Y-128305902D01*
X178441655Y-128305902D02*
X178441655Y-128258283D01*
X178441655Y-128258283D02*
X178489274Y-128163045D01*
X178489274Y-128163045D02*
X178584512Y-128115426D01*
X178584512Y-128115426D02*
X178727369Y-128115426D01*
X178727369Y-128115426D02*
X178822607Y-128163045D01*
X179346417Y-128734474D02*
X179346417Y-128782093D01*
X179346417Y-128782093D02*
X179298798Y-128877331D01*
X179298798Y-128877331D02*
X179251179Y-128924950D01*
X181108321Y-128782093D02*
X180774988Y-128305902D01*
X180536893Y-128782093D02*
X180536893Y-127782093D01*
X180536893Y-127782093D02*
X180917845Y-127782093D01*
X180917845Y-127782093D02*
X181013083Y-127829712D01*
X181013083Y-127829712D02*
X181060702Y-127877331D01*
X181060702Y-127877331D02*
X181108321Y-127972569D01*
X181108321Y-127972569D02*
X181108321Y-128115426D01*
X181108321Y-128115426D02*
X181060702Y-128210664D01*
X181060702Y-128210664D02*
X181013083Y-128258283D01*
X181013083Y-128258283D02*
X180917845Y-128305902D01*
X180917845Y-128305902D02*
X180536893Y-128305902D01*
X182298798Y-128782093D02*
X182298798Y-127782093D01*
X182298798Y-127782093D02*
X182632131Y-128496378D01*
X182632131Y-128496378D02*
X182965464Y-127782093D01*
X182965464Y-127782093D02*
X182965464Y-128782093D01*
X184013083Y-128686854D02*
X183965464Y-128734474D01*
X183965464Y-128734474D02*
X183822607Y-128782093D01*
X183822607Y-128782093D02*
X183727369Y-128782093D01*
X183727369Y-128782093D02*
X183584512Y-128734474D01*
X183584512Y-128734474D02*
X183489274Y-128639235D01*
X183489274Y-128639235D02*
X183441655Y-128543997D01*
X183441655Y-128543997D02*
X183394036Y-128353521D01*
X183394036Y-128353521D02*
X183394036Y-128210664D01*
X183394036Y-128210664D02*
X183441655Y-128020188D01*
X183441655Y-128020188D02*
X183489274Y-127924950D01*
X183489274Y-127924950D02*
X183584512Y-127829712D01*
X183584512Y-127829712D02*
X183727369Y-127782093D01*
X183727369Y-127782093D02*
X183822607Y-127782093D01*
X183822607Y-127782093D02*
X183965464Y-127829712D01*
X183965464Y-127829712D02*
X184013083Y-127877331D01*
X184441655Y-127782093D02*
X184441655Y-128591616D01*
X184441655Y-128591616D02*
X184489274Y-128686854D01*
X184489274Y-128686854D02*
X184536893Y-128734474D01*
X184536893Y-128734474D02*
X184632131Y-128782093D01*
X184632131Y-128782093D02*
X184822607Y-128782093D01*
X184822607Y-128782093D02*
X184917845Y-128734474D01*
X184917845Y-128734474D02*
X184965464Y-128686854D01*
X184965464Y-128686854D02*
X185013083Y-128591616D01*
X185013083Y-128591616D02*
X185013083Y-127782093D01*
X186251179Y-128782093D02*
X186251179Y-127782093D01*
X186251179Y-127782093D02*
X186489274Y-127782093D01*
X186489274Y-127782093D02*
X186632131Y-127829712D01*
X186632131Y-127829712D02*
X186727369Y-127924950D01*
X186727369Y-127924950D02*
X186774988Y-128020188D01*
X186774988Y-128020188D02*
X186822607Y-128210664D01*
X186822607Y-128210664D02*
X186822607Y-128353521D01*
X186822607Y-128353521D02*
X186774988Y-128543997D01*
X186774988Y-128543997D02*
X186727369Y-128639235D01*
X186727369Y-128639235D02*
X186632131Y-128734474D01*
X186632131Y-128734474D02*
X186489274Y-128782093D01*
X186489274Y-128782093D02*
X186251179Y-128782093D01*
X187394036Y-128782093D02*
X187298798Y-128734474D01*
X187298798Y-128734474D02*
X187251179Y-128686854D01*
X187251179Y-128686854D02*
X187203560Y-128591616D01*
X187203560Y-128591616D02*
X187203560Y-128305902D01*
X187203560Y-128305902D02*
X187251179Y-128210664D01*
X187251179Y-128210664D02*
X187298798Y-128163045D01*
X187298798Y-128163045D02*
X187394036Y-128115426D01*
X187394036Y-128115426D02*
X187536893Y-128115426D01*
X187536893Y-128115426D02*
X187632131Y-128163045D01*
X187632131Y-128163045D02*
X187679750Y-128210664D01*
X187679750Y-128210664D02*
X187727369Y-128305902D01*
X187727369Y-128305902D02*
X187727369Y-128591616D01*
X187727369Y-128591616D02*
X187679750Y-128686854D01*
X187679750Y-128686854D02*
X187632131Y-128734474D01*
X187632131Y-128734474D02*
X187536893Y-128782093D01*
X187536893Y-128782093D02*
X187394036Y-128782093D01*
X188060703Y-128115426D02*
X188251179Y-128782093D01*
X188251179Y-128782093D02*
X188441655Y-128305902D01*
X188441655Y-128305902D02*
X188632131Y-128782093D01*
X188632131Y-128782093D02*
X188822607Y-128115426D01*
X189203560Y-128115426D02*
X189203560Y-128782093D01*
X189203560Y-128210664D02*
X189251179Y-128163045D01*
X189251179Y-128163045D02*
X189346417Y-128115426D01*
X189346417Y-128115426D02*
X189489274Y-128115426D01*
X189489274Y-128115426D02*
X189584512Y-128163045D01*
X189584512Y-128163045D02*
X189632131Y-128258283D01*
X189632131Y-128258283D02*
X189632131Y-128782093D01*
%TO.C,S5*%
X156414504Y-89724979D02*
X165006683Y-88973261D01*
X156755108Y-93618108D02*
X156414504Y-89724979D01*
X156759118Y-93663933D02*
X161793910Y-93269622D01*
X159811760Y-99871499D02*
X160212676Y-104453995D01*
X159834485Y-99844416D02*
X162374780Y-99622168D01*
X160239759Y-104476721D02*
X164772445Y-104080162D01*
X164474284Y-97230082D02*
X169156402Y-96820450D01*
X164714239Y-103357485D02*
X164775247Y-104054821D01*
X165801041Y-101781768D02*
X169561676Y-101452755D01*
X167443328Y-90721546D02*
X167787158Y-94651534D01*
X167787942Y-94660500D02*
X164191679Y-94975132D01*
X169158578Y-96845353D02*
X169584402Y-101425670D01*
X161769354Y-93275785D02*
G75*
G02*
X164184606Y-94951658I369689J-2045563D01*
G01*
X164471484Y-97255421D02*
G75*
G02*
X162299631Y-99623725I-2270083J-98221D01*
G01*
X164709879Y-103307674D02*
G75*
G02*
X165801477Y-101786747I1306263J214664D01*
G01*
X165006683Y-88973261D02*
G75*
G02*
X167426269Y-90652771I370038J-2049548D01*
G01*
%TO.C,S13*%
X195974991Y-56179522D02*
X195974992Y-52271522D01*
X195974991Y-56225522D02*
X201024991Y-56271522D01*
X195974992Y-52271522D02*
X204599991Y-52271522D01*
X198474992Y-62675522D02*
X198474992Y-67275522D01*
X198499991Y-62650522D02*
X201049993Y-62650522D01*
X198499992Y-67300522D02*
X203049991Y-67300522D01*
X203054991Y-66575522D02*
X203054991Y-67275522D01*
X203349989Y-60450522D02*
X208049991Y-60450522D01*
X204274991Y-65100522D02*
X208049990Y-65100521D01*
X206874991Y-54225522D02*
X206874991Y-58170522D01*
X206874991Y-58179522D02*
X203264991Y-58179522D01*
X208049990Y-60475525D02*
X208074991Y-65075521D01*
X200999991Y-56275522D02*
G75*
G02*
X203259991Y-58155521I190000J-2070000D01*
G01*
X203054990Y-66525520D02*
G75*
G02*
X204274991Y-65105521I1320001J99998D01*
G01*
X203344991Y-60475522D02*
G75*
G02*
X200974991Y-62645522I-2270000J100000D01*
G01*
X204599991Y-52271522D02*
G75*
G02*
X206863991Y-54155522I190000J-2074000D01*
G01*
D13*
%TO.C,PWR1*%
X192612493Y-127661521D02*
X192612493Y-128451519D01*
X193212493Y-129461521D02*
X198912493Y-129461521D01*
X194462493Y-126611521D02*
X196162494Y-126611521D01*
X197462493Y-126611524D02*
X197662493Y-126611521D01*
X199512492Y-128451519D02*
X199512493Y-127661521D01*
D12*
%TO.C,S7*%
X153093870Y-51769960D02*
X161686049Y-51018242D01*
X153434474Y-55663089D02*
X153093870Y-51769960D01*
X153438484Y-55708914D02*
X158473276Y-55314603D01*
X156491126Y-61916480D02*
X156892042Y-66498976D01*
X156513851Y-61889397D02*
X159054146Y-61667149D01*
X156919125Y-66521702D02*
X161451811Y-66125143D01*
X161153650Y-59275063D02*
X165835768Y-58865431D01*
X161393605Y-65402466D02*
X161454613Y-66099802D01*
X162480407Y-63826749D02*
X166241042Y-63497736D01*
X164122694Y-52766527D02*
X164466524Y-56696515D01*
X164467308Y-56705481D02*
X160871045Y-57020113D01*
X165837944Y-58890334D02*
X166263768Y-63470651D01*
X158448720Y-55320766D02*
G75*
G02*
X160863972Y-56996639I369689J-2045563D01*
G01*
X161150850Y-59300402D02*
G75*
G02*
X158978997Y-61668706I-2270083J-98221D01*
G01*
X161389245Y-65352655D02*
G75*
G02*
X162480843Y-63831728I1306263J214664D01*
G01*
X161686049Y-51018242D02*
G75*
G02*
X164105635Y-52697752I370038J-2049548D01*
G01*
%TO.C,S3*%
X133835778Y-88448729D02*
X142272300Y-86655491D01*
X134648297Y-92271330D02*
X133835778Y-88448729D01*
X134657861Y-92316324D02*
X139607071Y-91311365D01*
X138444262Y-98105598D02*
X139400655Y-102605076D01*
X138463517Y-98075947D02*
X140957792Y-97545771D01*
X139430306Y-102624332D02*
X143880877Y-101678334D01*
X142750127Y-94915649D02*
X147347418Y-93938464D01*
X143735032Y-100968137D02*
X143880570Y-101652841D01*
X144621704Y-99271717D02*
X148314210Y-98486851D01*
X144903848Y-88093789D02*
X145724058Y-91952584D01*
X145725929Y-91961385D02*
X142194817Y-92711949D01*
X147352618Y-93962918D02*
X148333465Y-98457198D01*
X139583447Y-91320476D02*
G75*
G02*
X142184936Y-92689509I616227J-1985262D01*
G01*
X142272300Y-86655491D02*
G75*
G02*
X144878533Y-88027609I617058J-1989174D01*
G01*
X142750435Y-94941143D02*
G75*
G02*
X140883391Y-97556473I-2241184J-374145D01*
G01*
X143724635Y-100919229D02*
G75*
G02*
X144622743Y-99276607I1270365J372257D01*
G01*
%TO.C,S16*%
X214974994Y-58084523D02*
X214974995Y-54176523D01*
X214974994Y-58130523D02*
X220024994Y-58176523D01*
X214974995Y-54176523D02*
X223599994Y-54176523D01*
X217474995Y-64580523D02*
X217474995Y-69180523D01*
X217499994Y-64555523D02*
X220049996Y-64555523D01*
X217499995Y-69205523D02*
X222049994Y-69205523D01*
X222054994Y-68480523D02*
X222054994Y-69180523D01*
X222349992Y-62355523D02*
X227049994Y-62355523D01*
X223274994Y-67005523D02*
X227049993Y-67005522D01*
X225874994Y-56130523D02*
X225874994Y-60075523D01*
X225874994Y-60084523D02*
X222264994Y-60084523D01*
X227049993Y-62380526D02*
X227074994Y-66980522D01*
X219999994Y-58180523D02*
G75*
G02*
X222259994Y-60060522I190000J-2070000D01*
G01*
X222054993Y-68430521D02*
G75*
G02*
X223274994Y-67010522I1320001J99998D01*
G01*
X222344994Y-62380523D02*
G75*
G02*
X219974994Y-64550523I-2270000J100000D01*
G01*
X223599994Y-54176523D02*
G75*
G02*
X225863994Y-56060523I190000J-2074000D01*
G01*
%TO.C,S15*%
X214974992Y-77134523D02*
X214974993Y-73226523D01*
X214974992Y-77180523D02*
X220024992Y-77226523D01*
X214974993Y-73226523D02*
X223599992Y-73226523D01*
X217474993Y-83630523D02*
X217474993Y-88230523D01*
X217499992Y-83605523D02*
X220049994Y-83605523D01*
X217499993Y-88255523D02*
X222049992Y-88255523D01*
X222054992Y-87530523D02*
X222054992Y-88230523D01*
X222349990Y-81405523D02*
X227049992Y-81405523D01*
X223274992Y-86055523D02*
X227049991Y-86055522D01*
X225874992Y-75180523D02*
X225874992Y-79125523D01*
X225874992Y-79134523D02*
X222264992Y-79134523D01*
X227049991Y-81430526D02*
X227074992Y-86030522D01*
X219999992Y-77230523D02*
G75*
G02*
X222259992Y-79110522I190000J-2070000D01*
G01*
X222054991Y-87480521D02*
G75*
G02*
X223274992Y-86060522I1320001J99998D01*
G01*
X222344992Y-81430523D02*
G75*
G02*
X219974992Y-83600523I-2270000J100000D01*
G01*
X223599992Y-73226523D02*
G75*
G02*
X225863992Y-75110523I190000J-2074000D01*
G01*
%TO.C,S18*%
X227198015Y-129358581D02*
X231592980Y-130536207D01*
X227625475Y-118007434D02*
X232491495Y-119358903D01*
X227637380Y-117963001D02*
X228648846Y-114188162D01*
X228370908Y-124884703D02*
X227180340Y-129327962D01*
X228401526Y-124867026D02*
X230864637Y-125527014D01*
X228648846Y-114188162D02*
X236979956Y-116420478D01*
X231785453Y-129837205D02*
X231604280Y-130513353D01*
X233345641Y-128728224D02*
X236992011Y-129705269D01*
X233655668Y-123997261D02*
X238195519Y-125213711D01*
X237648334Y-122715981D02*
X234161342Y-121781644D01*
X238189049Y-125237859D02*
X237022630Y-129687587D01*
X238671705Y-118896710D02*
X237650664Y-122707287D01*
X231798394Y-129788908D02*
G75*
G02*
X233344347Y-128733052I1300897J-245037D01*
G01*
X232466312Y-119356295D02*
G75*
G02*
X234162725Y-121757167I-352230J-2048643D01*
G01*
X233644368Y-124020115D02*
G75*
G02*
X230793485Y-125502773I-2166771J684113D01*
G01*
X236979956Y-116420478D02*
G75*
G02*
X238679196Y-118826248I-353265J-2052505D01*
G01*
%TO.C,S12*%
X195974992Y-75229520D02*
X195974993Y-71321520D01*
X195974992Y-75275520D02*
X201024992Y-75321520D01*
X195974993Y-71321520D02*
X204599992Y-71321520D01*
X198474993Y-81725520D02*
X198474993Y-86325520D01*
X198499992Y-81700520D02*
X201049994Y-81700520D01*
X198499993Y-86350520D02*
X203049992Y-86350520D01*
X203054992Y-85625520D02*
X203054992Y-86325520D01*
X203349990Y-79500520D02*
X208049992Y-79500520D01*
X204274992Y-84150520D02*
X208049991Y-84150519D01*
X206874992Y-73275520D02*
X206874992Y-77220520D01*
X206874992Y-77229520D02*
X203264992Y-77229520D01*
X208049991Y-79525523D02*
X208074992Y-84125519D01*
X200999992Y-75325520D02*
G75*
G02*
X203259992Y-77205519I190000J-2070000D01*
G01*
X203054991Y-85575518D02*
G75*
G02*
X204274992Y-84155519I1320001J99998D01*
G01*
X203344992Y-79525520D02*
G75*
G02*
X200974992Y-81695520I-2270000J100000D01*
G01*
X204599992Y-71321520D02*
G75*
G02*
X206863992Y-73205520I190000J-2074000D01*
G01*
%TO.C,S14*%
X214974991Y-96184524D02*
X214974992Y-92276524D01*
X214974991Y-96230524D02*
X220024991Y-96276524D01*
X214974992Y-92276524D02*
X223599991Y-92276524D01*
X217474992Y-102680524D02*
X217474992Y-107280524D01*
X217499991Y-102655524D02*
X220049993Y-102655524D01*
X217499992Y-107305524D02*
X222049991Y-107305524D01*
X222054991Y-106580524D02*
X222054991Y-107280524D01*
X222349989Y-100455524D02*
X227049991Y-100455524D01*
X223274991Y-105105524D02*
X227049990Y-105105523D01*
X225874991Y-94230524D02*
X225874991Y-98175524D01*
X225874991Y-98184524D02*
X222264991Y-98184524D01*
X227049990Y-100480527D02*
X227074991Y-105080523D01*
X219999991Y-96280524D02*
G75*
G02*
X222259991Y-98160523I190000J-2070000D01*
G01*
X222054990Y-106530522D02*
G75*
G02*
X223274991Y-105110523I1320001J99998D01*
G01*
X222344991Y-100480524D02*
G75*
G02*
X219974991Y-102650524I-2270000J100000D01*
G01*
X223599991Y-92276524D02*
G75*
G02*
X225863991Y-94160524I190000J-2074000D01*
G01*
%TO.C,S2*%
X137796502Y-107082438D02*
X146233024Y-105289200D01*
X138609021Y-110905039D02*
X137796502Y-107082438D01*
X138618585Y-110950033D02*
X143567795Y-109945074D01*
X142404986Y-116739307D02*
X143361379Y-121238785D01*
X142424241Y-116709656D02*
X144918516Y-116179480D01*
X143391030Y-121258041D02*
X147841601Y-120312043D01*
X146710851Y-113549358D02*
X151308142Y-112572173D01*
X147695756Y-119601846D02*
X147841294Y-120286550D01*
X148582428Y-117905426D02*
X152274934Y-117120560D01*
X148864572Y-106727498D02*
X149684782Y-110586293D01*
X149686653Y-110595094D02*
X146155541Y-111345658D01*
X151313342Y-112596627D02*
X152294189Y-117090907D01*
X143544171Y-109954185D02*
G75*
G02*
X146145660Y-111323218I616227J-1985262D01*
G01*
X146233024Y-105289200D02*
G75*
G02*
X148839257Y-106661318I617058J-1989174D01*
G01*
X146711159Y-113574852D02*
G75*
G02*
X144844115Y-116190182I-2241184J-374145D01*
G01*
X147685359Y-119552938D02*
G75*
G02*
X148583467Y-117910316I1270365J372257D01*
G01*
%TO.C,S6*%
X154754192Y-70747470D02*
X163346371Y-69995752D01*
X155094796Y-74640599D02*
X154754192Y-70747470D01*
X155098806Y-74686424D02*
X160133598Y-74292113D01*
X158151448Y-80893990D02*
X158552364Y-85476486D01*
X158174173Y-80866907D02*
X160714468Y-80644659D01*
X158579447Y-85499212D02*
X163112133Y-85102653D01*
X162813972Y-78252573D02*
X167496090Y-77842941D01*
X163053927Y-84379976D02*
X163114935Y-85077312D01*
X164140729Y-82804259D02*
X167901364Y-82475246D01*
X165783016Y-71744037D02*
X166126846Y-75674025D01*
X166127630Y-75682991D02*
X162531367Y-75997623D01*
X167498266Y-77867844D02*
X167924090Y-82448161D01*
X160109042Y-74298276D02*
G75*
G02*
X162524294Y-75974149I369689J-2045563D01*
G01*
X162811172Y-78277912D02*
G75*
G02*
X160639319Y-80646216I-2270083J-98221D01*
G01*
X163049567Y-84330165D02*
G75*
G02*
X164141165Y-82809238I1306263J214664D01*
G01*
X163346371Y-69995752D02*
G75*
G02*
X165765957Y-71675262I370038J-2049548D01*
G01*
%TO.C,S11*%
X195974991Y-94279522D02*
X195974992Y-90371522D01*
X195974991Y-94325522D02*
X201024991Y-94371522D01*
X195974992Y-90371522D02*
X204599991Y-90371522D01*
X198474992Y-100775522D02*
X198474992Y-105375522D01*
X198499991Y-100750522D02*
X201049993Y-100750522D01*
X198499992Y-105400522D02*
X203049991Y-105400522D01*
X203054991Y-104675522D02*
X203054991Y-105375522D01*
X203349989Y-98550522D02*
X208049991Y-98550522D01*
X204274991Y-103200522D02*
X208049990Y-103200521D01*
X206874991Y-92325522D02*
X206874991Y-96270522D01*
X206874991Y-96279522D02*
X203264991Y-96279522D01*
X208049990Y-98575525D02*
X208074991Y-103175521D01*
X200999991Y-94375522D02*
G75*
G02*
X203259991Y-96255521I190000J-2070000D01*
G01*
X203054990Y-104625520D02*
G75*
G02*
X204274991Y-103205521I1320001J99998D01*
G01*
X203344991Y-98575522D02*
G75*
G02*
X200974991Y-100745522I-2270000J100000D01*
G01*
X204599991Y-90371522D02*
G75*
G02*
X206863991Y-92255522I190000J-2074000D01*
G01*
%TO.C,S8*%
X176974992Y-86659523D02*
X176974993Y-82751523D01*
X176974992Y-86705523D02*
X182024992Y-86751523D01*
X176974993Y-82751523D02*
X185599992Y-82751523D01*
X179474993Y-93155523D02*
X179474993Y-97755523D01*
X179499992Y-93130523D02*
X182049994Y-93130523D01*
X179499993Y-97780523D02*
X184049992Y-97780523D01*
X184054992Y-97055523D02*
X184054992Y-97755523D01*
X184349990Y-90930523D02*
X189049992Y-90930523D01*
X185274992Y-95580523D02*
X189049991Y-95580522D01*
X187874992Y-84705523D02*
X187874992Y-88650523D01*
X187874992Y-88659523D02*
X184264992Y-88659523D01*
X189049991Y-90955526D02*
X189074992Y-95555522D01*
X181999992Y-86755523D02*
G75*
G02*
X184259992Y-88635522I190000J-2070000D01*
G01*
X184054991Y-97005521D02*
G75*
G02*
X185274992Y-95585522I1320001J99998D01*
G01*
X184344992Y-90955523D02*
G75*
G02*
X181974992Y-93125523I-2270000J100000D01*
G01*
X185599992Y-82751523D02*
G75*
G02*
X187863992Y-84635523I190000J-2074000D01*
G01*
%TO.C,S10*%
X176974991Y-48559525D02*
X176974992Y-44651525D01*
X176974991Y-48605525D02*
X182024991Y-48651525D01*
X176974992Y-44651525D02*
X185599991Y-44651525D01*
X179474992Y-55055525D02*
X179474992Y-59655525D01*
X179499991Y-55030525D02*
X182049993Y-55030525D01*
X179499992Y-59680525D02*
X184049991Y-59680525D01*
X184054991Y-58955525D02*
X184054991Y-59655525D01*
X184349989Y-52830525D02*
X189049991Y-52830525D01*
X185274991Y-57480525D02*
X189049990Y-57480524D01*
X187874991Y-46605525D02*
X187874991Y-50550525D01*
X187874991Y-50559525D02*
X184264991Y-50559525D01*
X189049990Y-52855528D02*
X189074991Y-57455524D01*
X181999991Y-48655525D02*
G75*
G02*
X184259991Y-50535524I190000J-2070000D01*
G01*
X184054990Y-58905523D02*
G75*
G02*
X185274991Y-57485524I1320001J99998D01*
G01*
X184344991Y-52855525D02*
G75*
G02*
X181974991Y-55025525I-2270000J100000D01*
G01*
X185599991Y-44651525D02*
G75*
G02*
X187863991Y-46535525I190000J-2074000D01*
G01*
%TO.C,S1*%
X116439192Y-97989161D02*
X124875714Y-96195923D01*
X117251711Y-101811762D02*
X116439192Y-97989161D01*
X117261275Y-101856756D02*
X122210485Y-100851797D01*
X121047676Y-107646030D02*
X122004069Y-112145508D01*
X121066931Y-107616379D02*
X123561206Y-107086203D01*
X122033720Y-112164764D02*
X126484291Y-111218766D01*
X125353541Y-104456081D02*
X129950832Y-103478896D01*
X126338446Y-110508569D02*
X126483984Y-111193273D01*
X127225118Y-108812149D02*
X130917624Y-108027283D01*
X127507262Y-97634221D02*
X128327472Y-101493016D01*
X128329343Y-101501817D02*
X124798231Y-102252381D01*
X129956032Y-103503350D02*
X130936879Y-107997630D01*
X122186861Y-100860908D02*
G75*
G02*
X124788350Y-102229941I616227J-1985262D01*
G01*
X124875714Y-96195923D02*
G75*
G02*
X127481947Y-97568041I617058J-1989174D01*
G01*
X125353849Y-104481575D02*
G75*
G02*
X123486805Y-107096905I-2241184J-374145D01*
G01*
X126328049Y-110459661D02*
G75*
G02*
X127226157Y-108817039I1270365J372257D01*
G01*
D14*
%TO.C,RST1*%
X163182488Y-126346021D02*
X163182488Y-126096021D01*
X163182488Y-129346021D02*
X163182488Y-129596021D01*
X163432488Y-126096021D02*
X163182488Y-126096021D01*
X163432488Y-129596021D02*
X163182488Y-129596021D01*
X167632488Y-126096021D02*
X167882488Y-126096021D01*
X167632488Y-129596021D02*
X167882488Y-129596021D01*
X167882488Y-126346021D02*
X167882488Y-126096021D01*
X167882488Y-129346021D02*
X167882488Y-129596021D01*
D12*
%TO.C,S9*%
X176974994Y-67609524D02*
X176974995Y-63701524D01*
X176974994Y-67655524D02*
X182024994Y-67701524D01*
X176974995Y-63701524D02*
X185599994Y-63701524D01*
X179474995Y-74105524D02*
X179474995Y-78705524D01*
X179499994Y-74080524D02*
X182049996Y-74080524D01*
X179499995Y-78730524D02*
X184049994Y-78730524D01*
X184054994Y-78005524D02*
X184054994Y-78705524D01*
X184349992Y-71880524D02*
X189049994Y-71880524D01*
X185274994Y-76530524D02*
X189049993Y-76530523D01*
X187874994Y-65655524D02*
X187874994Y-69600524D01*
X187874994Y-69609524D02*
X184264994Y-69609524D01*
X189049993Y-71905527D02*
X189074994Y-76505523D01*
X181999994Y-67705524D02*
G75*
G02*
X184259994Y-69585523I190000J-2070000D01*
G01*
X184054993Y-77955522D02*
G75*
G02*
X185274994Y-76535523I1320001J99998D01*
G01*
X184344994Y-71905524D02*
G75*
G02*
X181974994Y-74075524I-2270000J100000D01*
G01*
X185599994Y-63701524D02*
G75*
G02*
X187863994Y-65585524I190000J-2074000D01*
G01*
%TO.C,S4*%
X129875063Y-69815018D02*
X138311585Y-68021780D01*
X130687582Y-73637619D02*
X129875063Y-69815018D01*
X130697146Y-73682613D02*
X135646356Y-72677654D01*
X134483547Y-79471887D02*
X135439940Y-83971365D01*
X134502802Y-79442236D02*
X136997077Y-78912060D01*
X135469591Y-83990621D02*
X139920162Y-83044623D01*
X138789412Y-76281938D02*
X143386703Y-75304753D01*
X139774317Y-82334426D02*
X139919855Y-83019130D01*
X140660989Y-80638006D02*
X144353495Y-79853140D01*
X140943133Y-69460078D02*
X141763343Y-73318873D01*
X141765214Y-73327674D02*
X138234102Y-74078238D01*
X143391903Y-75329207D02*
X144372750Y-79823487D01*
X135622732Y-72686765D02*
G75*
G02*
X138224221Y-74055798I616227J-1985262D01*
G01*
X138311585Y-68021780D02*
G75*
G02*
X140917818Y-69393898I617058J-1989174D01*
G01*
X138789720Y-76307432D02*
G75*
G02*
X136922676Y-78922762I-2241184J-374145D01*
G01*
X139763920Y-82285518D02*
G75*
G02*
X140662028Y-80642896I1270365J372257D01*
G01*
%TO.C,S17*%
X204547487Y-116187023D02*
X204547488Y-112279023D01*
X204547487Y-116233023D02*
X209597487Y-116279023D01*
X204547488Y-112279023D02*
X213172487Y-112279023D01*
X207047488Y-122683023D02*
X207047488Y-127283023D01*
X207072487Y-122658023D02*
X209622489Y-122658023D01*
X207072488Y-127308023D02*
X211622487Y-127308023D01*
X211627487Y-126583023D02*
X211627487Y-127283023D01*
X211922485Y-120458023D02*
X216622487Y-120458023D01*
X212847487Y-125108023D02*
X216622486Y-125108022D01*
X215447487Y-114233023D02*
X215447487Y-118178023D01*
X215447487Y-118187023D02*
X211837487Y-118187023D01*
X216622486Y-120483026D02*
X216647487Y-125083022D01*
X209572487Y-116283023D02*
G75*
G02*
X211832487Y-118163022I190000J-2070000D01*
G01*
X211627486Y-126533021D02*
G75*
G02*
X212847487Y-125113022I1320001J99998D01*
G01*
X211917487Y-120483023D02*
G75*
G02*
X209547487Y-122653023I-2270000J100000D01*
G01*
X213172487Y-112279023D02*
G75*
G02*
X215436487Y-114163023I190000J-2074000D01*
G01*
D13*
%TO.C,JST1*%
X193002491Y-107145525D02*
X193002491Y-108145525D01*
X193002491Y-114965525D02*
X193002490Y-113965525D01*
X193922491Y-114965525D02*
X193002491Y-114965525D01*
X194002491Y-107145524D02*
X193002491Y-107145525D01*
D14*
X194562491Y-116005525D02*
X195562491Y-116005523D01*
X197062491Y-115505525D02*
X197062491Y-116505525D01*
X197562491Y-116005522D02*
X196562491Y-116005525D01*
D13*
X198202491Y-114965525D02*
X199122491Y-114965525D01*
X198202492Y-107145525D02*
X199122491Y-107145525D01*
X199122491Y-107145525D02*
X199122491Y-108145525D01*
X199122491Y-114965525D02*
X199122492Y-113965525D01*
%TD*%
M02*
