M48
; DRILL file {KiCad 8.0.4} date 2025-04-02T23:56:51+0200
; FORMAT={-:-/ absolute / inch / decimal}
; #@! TF.CreationDate,2025-04-02T23:56:51+02:00
; #@! TF.GenerationSoftware,Kicad,Pcbnew,8.0.4
; #@! TF.FileFunction,Plated,1,2,PTH
FMAT,2
INCH
; #@! TA.AperFunction,Plated,PTH,ViaDrill
T1C0.0118
; #@! TA.AperFunction,Plated,PTH,ComponentDrill
T2C0.0157
; #@! TA.AperFunction,Plated,PTH,ComponentDrill
T3C0.0295
; #@! TA.AperFunction,Plated,PTH,ComponentDrill
T4C0.0394
%
G90
G05
T1
X4.7634Y-3.7873
X5.292Y-2.6767
X5.4492Y-3.4161
X5.6047Y-4.1478
X5.9685Y-3.8661
X5.9685Y-3.937
X6.0Y-3.9449
X6.0079Y-4.1575
X6.2204Y-1.9902
X6.2863Y-2.7432
X6.3515Y-3.4884
X6.3937Y-4.3386
X6.5161Y-5.0668
X6.5161Y-4.9998
X6.6123Y-2.6746
X6.6693Y-4.811
X6.7402Y-4.1417
X6.7596Y-4.0157
X6.7874Y-5.0157
X6.8Y-3.9754
X7.0394Y-3.1417
X7.0709Y-3.9055
X7.1339Y-3.9832
X7.1539Y-2.4783
X7.1575Y-4.6063
X7.1617Y-3.2263
X7.1617Y-1.7303
X7.2126Y-4.3937
X7.2441Y-4.5906
X7.2835Y-4.3937
X7.2992Y-4.6973
X7.4173Y-4.6973
X7.4953Y-3.4935
X7.5118Y-4.1969
X7.5411Y-4.6063
X7.6142Y-4.0945
X7.6972Y-5.061
X7.7208Y-4.4242
X7.8076Y-4.9116
X7.8189Y-4.378
X7.9098Y-2.7775
X7.9098Y-2.0295
X7.9098Y-3.5256
X7.9134Y-4.2756
X8.1654Y-4.189
X8.2047Y-4.2126
X8.2392Y-3.4935
X8.2484Y-4.3917
X8.2598Y-4.1417
X8.2677Y-4.1811
X8.2916Y-4.2124
X8.3179Y-3.4935
X8.4173Y-4.2913
X8.6499Y-2.8563
X8.6499Y-2.1004
X8.6499Y-3.6043
X9.1964Y-4.5199
T2
X7.0226Y-4.4521
X7.0226Y-4.0521
X7.0226Y-4.1521
X7.0226Y-4.3521
X7.0226Y-4.5521
X7.0226Y-4.6521
X7.0226Y-4.7521
X7.0226Y-4.8521
X7.0226Y-4.9521
X7.0226Y-3.8521
X7.0226Y-4.2521
X7.0226Y-3.9521
X7.2904Y-3.8521
X7.2904Y-4.9521
X7.2904Y-4.6521
X7.2904Y-3.9521
X7.2904Y-4.0521
X7.2904Y-4.1521
X7.2904Y-4.2521
X7.2904Y-4.3521
X7.2904Y-4.5521
X7.2904Y-4.7521
X7.2904Y-4.8521
X7.2904Y-4.4521
T3
X7.6796Y-4.2758
X7.7584Y-4.2758
T4
X6.8565Y-4.4521
X6.8565Y-4.8521
X6.8565Y-3.8521
X6.8565Y-4.0521
X6.8565Y-4.1521
X6.8565Y-4.2521
X6.8565Y-4.3521
X6.8565Y-4.5521
X6.8565Y-4.6521
X6.8565Y-4.7521
X6.8565Y-4.9521
X6.8565Y-3.9521
X7.4565Y-4.9521
X7.4565Y-3.8521
X7.4565Y-3.9521
X7.4565Y-4.1521
X7.4565Y-4.2521
X7.4565Y-4.3521
X7.4565Y-4.5521
X7.4565Y-4.6521
X7.4565Y-4.7521
X7.4565Y-4.8521
X7.4565Y-4.0521
X7.4565Y-4.4521
M30
