%TF.GenerationSoftware,KiCad,Pcbnew,8.0.4*%
%TF.CreationDate,2025-04-02T23:57:16+02:00*%
%TF.ProjectId,reversible_split,72657665-7273-4696-926c-655f73706c69,v1.0.0*%
%TF.SameCoordinates,Original*%
%TF.FileFunction,Paste,Top*%
%TF.FilePolarity,Positive*%
%FSLAX46Y46*%
G04 Gerber Fmt 4.6, Leading zero omitted, Abs format (unit mm)*
G04 Created by KiCad (PCBNEW 8.0.4) date 2025-04-02 23:57:16*
%MOMM*%
%LPD*%
G01*
G04 APERTURE LIST*
G04 Aperture macros list*
%AMRotRect*
0 Rectangle, with rotation*
0 The origin of the aperture is its center*
0 $1 length*
0 $2 width*
0 $3 Rotation angle, in degrees counterclockwise*
0 Add horizontal line*
21,1,$1,$2,0,0,$3*%
%AMFreePoly0*
4,1,6,0.600000,-1.000000,0.000000,-0.400000,-0.600000,-1.000000,-0.600000,0.250000,0.600000,0.250000,0.600000,-1.000000,0.600000,-1.000000,$1*%
%AMFreePoly1*
4,1,6,0.600000,-0.200000,0.600000,-0.400000,-0.600000,-0.400000,-0.600000,-0.200000,0.000000,0.400000,0.600000,-0.200000,0.600000,-0.200000,$1*%
%AMFreePoly2*
4,1,6,0.500000,-0.625000,0.250000,-0.625000,-0.250000,0.000000,0.250000,0.625000,0.500000,0.625000,0.500000,-0.625000,0.500000,-0.625000,$1*%
%AMFreePoly3*
4,1,6,0.150000,0.000000,0.650000,-0.625000,-0.500000,-0.625000,-0.500000,0.625000,0.650000,0.625000,0.150000,0.000000,0.150000,0.000000,$1*%
G04 Aperture macros list end*
%ADD10RotRect,2.500000X2.500000X185.000000*%
%ADD11RotRect,2.000000X2.000000X185.000000*%
%ADD12RotRect,0.700000X1.500000X5.000000*%
%ADD13RotRect,2.400000X2.400000X185.000000*%
%ADD14RotRect,1.800000X2.000000X185.000000*%
%ADD15R,2.500000X2.500000*%
%ADD16R,2.000000X2.000000*%
%ADD17R,0.700000X1.500000*%
%ADD18R,2.400000X2.400000*%
%ADD19R,1.800000X2.000000*%
%ADD20R,1.000000X0.800000*%
%ADD21RotRect,2.500000X2.500000X192.000000*%
%ADD22RotRect,2.000000X2.000000X192.000000*%
%ADD23RotRect,0.700000X1.500000X12.000000*%
%ADD24RotRect,2.400000X2.400000X192.000000*%
%ADD25RotRect,1.800000X2.000000X192.000000*%
%ADD26RotRect,2.500000X2.500000X165.000000*%
%ADD27RotRect,2.000000X2.000000X165.000000*%
%ADD28RotRect,0.700000X1.500000X345.000000*%
%ADD29RotRect,2.400000X2.400000X165.000000*%
%ADD30RotRect,1.800000X2.000000X165.000000*%
%ADD31R,1.550000X1.000000*%
%ADD32FreePoly0,180.000000*%
%ADD33FreePoly1,180.000000*%
%ADD34FreePoly2,0.000000*%
%ADD35FreePoly2,180.000000*%
%ADD36FreePoly3,0.000000*%
%ADD37FreePoly3,180.000000*%
G04 APERTURE END LIST*
D10*
%TO.C,S5*%
X168441614Y-92953030D03*
D11*
X170180899Y-99064699D03*
D12*
X170039012Y-92853429D03*
X154172150Y-91631668D03*
D13*
X155668185Y-91520859D03*
D14*
X159514120Y-102206324D03*
%TD*%
D15*
%TO.C,S13*%
X207674991Y-56535521D03*
D16*
X208874991Y-62775522D03*
D17*
X209274991Y-56575522D03*
X193574991Y-53975522D03*
D18*
X195074991Y-53995522D03*
D19*
X197974991Y-64975521D03*
%TD*%
D20*
%TO.C,PWR1*%
X199712495Y-126951521D03*
X192412493Y-126951521D03*
X192412494Y-129161519D03*
X199712493Y-129161522D03*
D17*
X193812494Y-126301521D03*
X196812493Y-126301521D03*
X198312494Y-126301521D03*
%TD*%
D10*
%TO.C,S7*%
X165120980Y-54998011D03*
D11*
X166860265Y-61109680D03*
D12*
X166718378Y-54898410D03*
X150851516Y-53676649D03*
D13*
X152347551Y-53565840D03*
D14*
X156193486Y-64251305D03*
%TD*%
D21*
%TO.C,S3*%
X146166642Y-90186982D03*
D22*
X148637787Y-96041129D03*
D23*
X147739996Y-89893451D03*
X131842506Y-90614483D03*
D24*
X133313885Y-90322176D03*
D25*
X138433384Y-100459293D03*
%TD*%
D15*
%TO.C,S16*%
X226674994Y-58440522D03*
D16*
X227874994Y-64680523D03*
D17*
X228274994Y-58480523D03*
X212574994Y-55880523D03*
D18*
X214074994Y-55900523D03*
D19*
X216974994Y-66880522D03*
%TD*%
D15*
%TO.C,S15*%
X226674992Y-77490522D03*
D16*
X227874992Y-83730523D03*
D17*
X228274992Y-77530523D03*
X212574992Y-74930523D03*
D18*
X214074992Y-74950523D03*
D19*
X216974992Y-85930522D03*
%TD*%
D26*
%TO.C,S18*%
X238846574Y-121335053D03*
D27*
X238390654Y-127673014D03*
D28*
X240381702Y-121787801D03*
X225889597Y-115212935D03*
D29*
X227333309Y-115620482D03*
D30*
X227292660Y-126976923D03*
%TD*%
D15*
%TO.C,S12*%
X207674992Y-75585519D03*
D16*
X208874992Y-81825520D03*
D17*
X209274992Y-75625520D03*
X193574992Y-73025520D03*
D18*
X195074992Y-73045520D03*
D19*
X197974992Y-84025519D03*
%TD*%
D15*
%TO.C,S14*%
X226674991Y-96540523D03*
D16*
X227874991Y-102780524D03*
D17*
X228274991Y-96580524D03*
X212574991Y-93980524D03*
D18*
X214074991Y-94000524D03*
D19*
X216974991Y-104980523D03*
%TD*%
D21*
%TO.C,S2*%
X150127366Y-108820691D03*
D22*
X152598511Y-114674838D03*
D23*
X151700720Y-108527160D03*
X135803230Y-109248192D03*
D24*
X137274609Y-108955885D03*
D25*
X142394108Y-119093002D03*
%TD*%
D10*
%TO.C,S6*%
X166781302Y-73975521D03*
D11*
X168520587Y-80087190D03*
D12*
X168378700Y-73875920D03*
X152511838Y-72654159D03*
D13*
X154007873Y-72543350D03*
D14*
X157853808Y-83228815D03*
%TD*%
D15*
%TO.C,S11*%
X207674991Y-94635521D03*
D16*
X208874991Y-100875522D03*
D17*
X209274991Y-94675522D03*
X193574991Y-92075522D03*
D18*
X195074991Y-92095522D03*
D19*
X197974991Y-103075521D03*
%TD*%
D15*
%TO.C,S8*%
X188674992Y-87015522D03*
D16*
X189874992Y-93255523D03*
D17*
X190274992Y-87055523D03*
X174574992Y-84455523D03*
D18*
X176074992Y-84475523D03*
D19*
X178974992Y-95455522D03*
%TD*%
D15*
%TO.C,S10*%
X188674991Y-48915524D03*
D16*
X189874991Y-55155525D03*
D17*
X190274991Y-48955525D03*
X174574991Y-46355525D03*
D18*
X176074991Y-46375525D03*
D19*
X178974991Y-57355524D03*
%TD*%
D21*
%TO.C,S1*%
X128770056Y-99727414D03*
D22*
X131241201Y-105581561D03*
D23*
X130343410Y-99433883D03*
X114445920Y-100154915D03*
D24*
X115917299Y-99862608D03*
D25*
X121036798Y-109999725D03*
%TD*%
D31*
%TO.C,RST1*%
X162907488Y-128696021D03*
X162907488Y-126996021D03*
X168157488Y-128696021D03*
X168157488Y-126996021D03*
%TD*%
D15*
%TO.C,S9*%
X188674994Y-67965523D03*
D16*
X189874994Y-74205524D03*
D17*
X190274994Y-68005524D03*
X174574994Y-65405524D03*
D18*
X176074994Y-65425524D03*
D19*
X178974994Y-76405523D03*
%TD*%
D21*
%TO.C,S4*%
X142205927Y-71553271D03*
D22*
X144677072Y-77407418D03*
D23*
X143779281Y-71259740D03*
X127881791Y-71980772D03*
D24*
X129353170Y-71688465D03*
D25*
X134472669Y-81825582D03*
%TD*%
D15*
%TO.C,S17*%
X216247487Y-116543022D03*
D16*
X217447487Y-122783023D03*
D17*
X217847487Y-116583023D03*
X202147487Y-113983023D03*
D18*
X203647487Y-114003023D03*
D19*
X206547487Y-124983022D03*
%TD*%
D32*
%TO.C,JST1*%
X195062491Y-111421525D03*
X197062491Y-111421525D03*
D33*
X195062491Y-110405525D03*
X197062491Y-110405525D03*
%TD*%
D34*
%TO.C,MCU1*%
X187274985Y-125782274D03*
X187274988Y-123242274D03*
X187274988Y-120702274D03*
X187274988Y-118162273D03*
X187274988Y-115622274D03*
X187274988Y-113082274D03*
X187274988Y-110542274D03*
X187274988Y-108002274D03*
X187274988Y-105462274D03*
X187274988Y-102922274D03*
X187274988Y-100382274D03*
X187274988Y-97842274D03*
D35*
X176274990Y-97842274D03*
X176274991Y-100382274D03*
X176274988Y-102922274D03*
X176274988Y-105462274D03*
X176274988Y-108002275D03*
X176274988Y-110542274D03*
X176274988Y-113082274D03*
X176274988Y-115622274D03*
X176274988Y-118162274D03*
X176274988Y-120702274D03*
X176274988Y-123242274D03*
X176274988Y-125782274D03*
D36*
X186549988Y-125782274D03*
X186549988Y-123242274D03*
X186549988Y-120702274D03*
X186549991Y-118162274D03*
X186549988Y-115622274D03*
X186549988Y-113082274D03*
X186549988Y-110542274D03*
X186549991Y-108002274D03*
X186549987Y-105462274D03*
X186549987Y-102922275D03*
X186549988Y-100382274D03*
X186549988Y-97842274D03*
D37*
X176999988Y-97842274D03*
X176999988Y-100382274D03*
X176999988Y-102922274D03*
X176999988Y-105462274D03*
X176999985Y-108002274D03*
X176999988Y-110542274D03*
X176999988Y-113082274D03*
X176999988Y-115622274D03*
X176999985Y-118162274D03*
X176999989Y-120702274D03*
X176999989Y-123242273D03*
X176999988Y-125782274D03*
%TD*%
M02*
