0
SECTION
2
HEADER
9
$INSUNITS
70
4
0
ENDSEC
0
SECTION
2
TABLES
0
TABLE
2
LTYPE
0
LTYPE
72
65
70
64
2
CONTINUOUS
3
______
73
0
40
0
0
ENDTAB
0
TABLE
2
LAYER
0
ENDTAB
0
ENDSEC
0
SECTION
2
ENTITIES
0
LINE
8
0
10
124.5425704
20
-135.9438917
11
207.7175703
21
-135.9438917
0
LINE
8
0
10
229.7675703
20
-135.9438917
11
229.7845102
21
-135.9438917
0
LINE
8
0
10
251.9607373
20
-135.9438917
11
253.0350704
21
-135.9438917
0
LINE
8
0
10
254.0350704
20
-134.9438917
11
254.0350704
21
-55.0288917
0
LINE
8
0
10
253.0350704
20
-54.0288917
11
196.4800704
21
-54.0288917
0
LINE
8
0
10
174.4300704
20
-54.0288917
11
124.5425704
21
-54.0288917
0
LINE
8
0
10
123.5425704
20
-55.0288917
11
123.5425704
21
-96.4506901
0
LINE
8
0
10
123.5425704
20
-118.9933002
11
123.5425704
21
-134.9438917
0
ARC
8
0
10
253.0350704
20
-134.9438917
40
1
50
270
51
0
0
ARC
8
0
10
253.0350704
20
-55.0288917
40
1
50
0
51
90
0
ARC
8
0
10
124.5425704
20
-55.0288917
40
1
50
90
51
180
0
ARC
8
0
10
124.5425704
20
-134.9438917
40
1
50
180
51
270
0
LINE
8
0
10
117.4231368
20
-119.6765774
11
122.9386146
21
-118.5042264
0
LINE
8
0
10
123.1465262
20
-96.9397639
11
113.0465958
21
-99.0865704
0
LINE
8
0
10
112.6614778
20
-99.6796
11
116.8301072
21
-119.2914594
0
LINE
8
0
10
174.9300704
20
-53.5288917
11
174.9300704
21
-50.6713917
0
LINE
8
0
10
195.9800704
20
-53.5288917
11
195.9800704
21
-50.6713917
0
LINE
8
0
10
195.4800704
20
-50.1713917
11
175.4300704
21
-50.1713917
0
LINE
8
0
10
208.7175703
20
-142.6588917
11
228.5716876
21
-142.6588917
0
LINE
8
0
10
229.2675703
20
-137.8731376
11
229.2675703
21
-136.4438917
0
LINE
8
0
10
208.2175703
20
-136.4438917
11
208.2175703
21
-142.1588917
0
LINE
8
0
10
228.7010971
20
-142.6759288
11
247.8787018
21
-147.8145525
0
LINE
8
0
10
248.4910742
20
-147.4609991
11
251.4777744
21
-136.3144822
0
LINE
8
0
10
229.7845102
20
-135.9438917
11
229.2675703
21
-137.8731376
0
ARC
8
0
10
207.7175703
20
-136.4438917
40
0.5
50
0
51
90
0
ARC
8
0
10
208.7175703
20
-142.1588917
40
0.5
50
180
51
270
0
ARC
8
0
10
228.5716876
20
-143.1588917
40
0.5
50
75.0000021
51
90
0
ARC
8
0
10
248.0081113
20
-147.3315896
40
0.5
50
255.0000021
51
345.0000021
0
ARC
8
0
10
251.9607373
20
-136.4438917
40
0.5
50
90
51
165.0000021
0
ARC
8
0
10
196.4800704
20
-53.5288917
40
0.5
50
180
51
270
0
ARC
8
0
10
195.4800704
20
-50.6713917
40
0.5
50
0
51
90
0
ARC
8
0
10
175.4300704
20
-50.6713917
40
0.5
50
90
51
180
0
ARC
8
0
10
174.4300704
20
-53.5288917
40
0.5
50
270
51
0
0
ARC
8
0
10
123.0425704
20
-96.4506901
40
0.5
50
282.0000005
51
0
0
ARC
8
0
10
113.1505516
20
-99.5756441
40
0.5
50
102.0000005
51
192.0000005
0
ARC
8
0
10
117.3191809
20
-119.1875036
40
0.5
50
192.0000005
51
282.0000005
0
ARC
8
0
10
123.0425704
20
-118.9933002
40
0.5
50
0
51
102.0000005
0
ARC
8
0
10
229.7675703
20
-136.4438917
40
0.5
50
90
51
180
0
ENDSEC
0
EOF