0
SECTION
2
HEADER
9
$INSUNITS
70
4
0
ENDSEC
0
SECTION
2
TABLES
0
TABLE
2
LTYPE
0
LTYPE
72
65
70
64
2
CONTINUOUS
3
______
73
0
40
0
0
ENDTAB
0
TABLE
2
LAYER
0
ENDTAB
0
ENDSEC
0
SECTION
2
ENTITIES
0
LINE
8
0
10
119.7969454
20
-141.7372264
11
203.4719454
21
-141.7372264
0
LINE
8
0
10
225.5219454
20
-141.7372264
11
225.5388853
21
-141.7372264
0
LINE
8
0
10
247.7151124
20
-141.7372264
11
249.2894454
21
-141.7372264
0
LINE
8
0
10
249.7894454
20
-141.2372264
11
249.7894454
21
-60.3222264
0
LINE
8
0
10
249.2894454
20
-59.8222264
11
192.2344455
21
-59.8222264
0
LINE
8
0
10
170.1844455
20
-59.8222264
11
119.7969454
21
-59.8222264
0
LINE
8
0
10
119.2969454
20
-60.3222264
11
119.2969454
21
-100.8279297
0
LINE
8
0
10
119.2969454
20
-123.2180866
11
119.2969454
21
-141.2372264
0
LINE
8
0
10
113.1749536
20
-123.7016821
11
118.7101213
21
-122.7256827
0
LINE
8
0
10
118.8837695
20
-101.3203336
11
109.5196594
21
-102.9714789
0
LINE
8
0
10
109.1140796
20
-103.5507069
11
112.5957256
21
-123.2961023
0
LINE
8
0
10
170.6844455
20
-59.3222264
11
170.6844455
21
-56.4647264
0
LINE
8
0
10
191.7344455
20
-59.3222264
11
191.7344455
21
-56.4647264
0
LINE
8
0
10
191.2344455
20
-55.9647264
11
171.1844455
21
-55.9647264
0
LINE
8
0
10
204.4719454
20
-148.4522264
11
224.3260627
21
-148.4522264
0
LINE
8
0
10
225.0219454
20
-143.6664723
11
225.0219454
21
-142.2372264
0
LINE
8
0
10
203.9719454
20
-142.2372264
11
203.9719454
21
-147.9522264
0
LINE
8
0
10
224.4554722
20
-148.4692635
11
243.6330769
21
-153.6078872
0
LINE
8
0
10
244.2454493
20
-153.2543338
11
247.2321495
21
-142.1078169
0
LINE
8
0
10
225.5388853
20
-141.7372264
11
225.0219454
21
-143.6664723
0
ARC
8
0
10
203.4719454
20
-142.2372264
40
0.5
50
0
51
90
0
ARC
8
0
10
204.4719454
20
-147.9522264
40
0.5
50
180
51
270
0
ARC
8
0
10
224.3260627
20
-148.9522264
40
0.5
50
75.0000021
51
90
0
ARC
8
0
10
243.7624864
20
-153.1249243
40
0.5
50
255.0000021
51
345.0000021
0
ARC
8
0
10
247.7151124
20
-142.2372264
40
0.5
50
90
51
165.0000021
0
ARC
8
0
10
249.2894454
20
-141.2372264
40
0.5
50
270
51
0
0
ARC
8
0
10
249.2894454
20
-60.3222264
40
0.5
50
0
51
90
0
ARC
8
0
10
192.2344455
20
-59.3222264
40
0.5
50
180
51
270
0
ARC
8
0
10
191.2344455
20
-56.4647264
40
0.5
50
0
51
90
0
ARC
8
0
10
171.1844455
20
-56.4647264
40
0.5
50
90
51
180
0
ARC
8
0
10
170.1844455
20
-59.3222264
40
0.5
50
270
51
0
0
ARC
8
0
10
119.7969454
20
-60.3222264
40
0.5
50
90
51
180
0
ARC
8
0
10
118.7969454
20
-100.8279297
40
0.5
50
280.0000008
51
0
0
ARC
8
0
10
109.6064835
20
-103.4638828
40
0.5
50
100.0000008
51
190.0000008
0
ARC
8
0
10
113.0881295
20
-123.2092782
40
0.5
50
190.0000008
51
280.0000008
0
ARC
8
0
10
118.7969454
20
-123.2180866
40
0.5
50
0
51
100.0000008
0
ARC
8
0
10
119.7969454
20
-141.2372264
40
0.5
50
180
51
270
0
ARC
8
0
10
225.5219454
20
-142.2372264
40
0.5
50
90
51
180
0
ENDSEC
0
EOF