0
SECTION
2
HEADER
9
$INSUNITS
70
4
0
ENDSEC
0
SECTION
2
TABLES
0
TABLE
2
LTYPE
0
LTYPE
72
65
70
64
2
CONTINUOUS
3
______
73
0
40
0
0
ENDTAB
0
TABLE
2
LAYER
0
ENDTAB
0
ENDSEC
0
SECTION
2
ENTITIES
0
LINE
8
0
10
117.6676737
20
-119.6245994
11
134.7852567
21
-115.9861449
0
LINE
8
0
10
130.4087157
20
-95.3961379
11
113.2911327
21
-99.0345924
0
LINE
8
0
10
112.7134558
20
-99.9241369
11
116.7781292
21
-119.0469225
0
LINE
8
0
10
135.6748012
20
-116.5638218
11
139.0971511
21
-132.664712
0
LINE
8
0
10
126.1493272
20
-71.7499895
11
130.9863926
21
-94.5065934
0
LINE
8
0
10
126.7270041
20
-70.860445
11
150.0940153
21
-65.8936336
0
LINE
8
0
10
149.6235817
20
-52.9599891
11
150.6852275
21
-65.0946561
0
LINE
8
0
10
150.3053609
20
-52.1474763
11
173.0572219
21
-50.1569464
0
LINE
8
0
10
173.7418551
20
-49.4098004
11
173.7418551
21
-45.3312782
0
LINE
8
0
10
194.7918551
20
-51.4512782
11
194.7918551
21
-45.3312782
0
LINE
8
0
10
194.0418551
20
-44.5812782
11
174.4918551
21
-44.5812782
0
LINE
8
0
10
213.7918549
20
-53.3562782
11
213.7918549
21
-52.9512782
0
LINE
8
0
10
213.0418549
20
-52.2012782
11
195.5418551
21
-52.2012782
0
LINE
8
0
10
232.791855
20
-113.8535826
11
232.791855
21
-54.8562782
0
LINE
8
0
10
232.041855
20
-54.1062782
11
214.5418549
21
-54.1062782
0
LINE
8
0
10
222.0069455
20
-133.3318338
11
240.7340049
21
-138.3497342
0
LINE
8
0
10
241.6525636
20
-137.8194041
11
246.7124759
21
-118.9355542
0
LINE
8
0
10
246.1821458
20
-118.0169955
11
233.3477407
21
-114.578027
0
LINE
8
0
10
140.0618551
20
-133.3062782
11
221.8128313
21
-133.3062782
0
LINE
8
0
10
140.0618551
20
-133.2587782
11
140.0618551
21
-133.3062782
0
LINE
8
0
10
139.8307618
20
-133.2587782
11
140.0618551
21
-133.2587782
0
ARC
8
0
10
134.9411905
20
-116.7197556
40
0.75
50
12.0000005
51
102.0000005
0
ARC
8
0
10
139.8307618
20
-132.5087782
40
0.75
50
192.0000005
51
270
0
ARC
8
0
10
221.8128313
20
-134.0562782
40
0.75
50
75.0000021
51
90
0
ARC
8
0
10
240.9281192
20
-137.6252898
40
0.75
50
255.0000021
51
345.0000021
0
ARC
8
0
10
245.9880315
20
-118.7414399
40
0.75
50
345.0000021
51
75.0000021
0
ARC
8
0
10
233.541855
20
-113.8535826
40
0.75
50
180
51
255.0000021
0
ARC
8
0
10
232.041855
20
-54.8562782
40
0.75
50
0
51
90
0
ARC
8
0
10
214.5418549
20
-53.3562782
40
0.75
50
180
51
270
0
ARC
8
0
10
213.0418549
20
-52.9512782
40
0.75
50
0
51
90
0
ARC
8
0
10
195.5418551
20
-51.4512782
40
0.75
50
180
51
270
0
ARC
8
0
10
194.0418551
20
-45.3312782
40
0.75
50
0
51
90
0
ARC
8
0
10
174.4918551
20
-45.3312782
40
0.75
50
90
51
180
0
ARC
8
0
10
172.9918551
20
-49.4098004
40
0.75
50
274.9999976
51
0
0
ARC
8
0
10
150.3707277
20
-52.8946223
40
0.75
50
94.9999976
51
184.9999976
0
ARC
8
0
10
149.9380815
20
-65.1600229
40
0.75
50
282.0000005
51
4.9999976
0
ARC
8
0
10
126.8829379
20
-71.5940557
40
0.75
50
102.0000005
51
192.0000005
0
ARC
8
0
10
130.2527819
20
-94.6625272
40
0.75
50
282.0000005
51
12.0000005
0
ARC
8
0
10
113.4470665
20
-99.7682031
40
0.75
50
102.0000005
51
192.0000005
0
ARC
8
0
10
117.5117399
20
-118.8909887
40
0.75
50
192.0000005
51
282.0000005
0
ENDSEC
0
EOF