0
SECTION
2
HEADER
9
$INSUNITS
70
4
0
ENDSEC
0
SECTION
2
TABLES
0
TABLE
2
LTYPE
0
LTYPE
72
65
70
64
2
CONTINUOUS
3
______
73
0
40
0
0
ENDTAB
0
TABLE
2
LAYER
0
ENDTAB
0
ENDSEC
0
SECTION
2
ENTITIES
0
LINE
8
0
10
103.024682
20
-154.9201535
11
188.8434541
21
-154.9201535
0
LINE
8
0
10
229.659682
20
-140.3429384
11
229.659682
21
-70.1951535
0
LINE
8
0
10
228.659682
20
-69.1951535
11
191.2205451
21
-69.1951535
0
LINE
8
0
10
169.0863178
20
-69.1951535
11
103.024682
21
-69.1951535
0
LINE
8
0
10
102.024682
20
-70.1951535
11
102.024682
21
-153.9201535
0
ARC
8
0
10
228.659682
20
-70.1951535
40
1
50
0
51
90
0
ARC
8
0
10
103.024682
20
-70.1951535
40
1
50
90
51
180
0
ARC
8
0
10
103.024682
20
-153.9201535
40
1
50
180
51
270
0
LINE
8
0
10
190.7224478
20
-68.6515757
11
190.8180042
21
-67.5593603
0
LINE
8
0
10
190.3634848
20
-67.0176851
11
170.389781
21
-65.2702125
0
LINE
8
0
10
169.8481058
20
-65.7247319
11
169.5844151
21
-68.7387313
0
LINE
8
0
10
188.8400232
20
-154.9396112
11
227.8384102
21
-161.8160791
0
LINE
8
0
10
188.8434541
20
-154.9201535
11
188.8400232
21
-154.9396112
0
LINE
8
0
10
228.4176382
20
-161.4104993
11
231.8992842
21
-141.6651039
0
LINE
8
0
10
231.4937044
20
-141.0858759
11
230.0728579
21
-140.8353423
0
ARC
8
0
10
227.9252343
20
-161.3236752
40
0.5
50
259.9999992
51
349.9999992
0
ARC
8
0
10
231.4068803
20
-141.5782798
40
0.5
50
349.9999992
51
79.9999992
0
ARC
8
0
10
230.159682
20
-140.3429384
40
0.5
50
180
51
259.9999992
0
ARC
8
0
10
191.2205451
20
-68.6951535
40
0.5
50
175.0000024
51
270
0
ARC
8
0
10
190.3199069
20
-67.5157824
40
0.5
50
355.0000024
51
85.0000024
0
ARC
8
0
10
170.3462031
20
-65.7683098
40
0.5
50
85.0000024
51
175.0000024
0
ARC
8
0
10
169.0863178
20
-68.6951535
40
0.5
50
270
51
355.0000024
0
LINE
8
0
10
106.9202091
20
-128.4017918
11
125.778586
21
-126.0862743
0
LINE
8
0
10
123.456975
20
-107.1782701
11
104.5985981
21
-109.4937876
0
LINE
8
0
10
104.5985981
20
-109.4937876
11
106.9202091
21
-128.4017918
0
LINE
8
0
10
128.100197
20
-144.9942785
11
147.0082012
21
-142.6726675
0
LINE
8
0
10
140.0433682
20
-85.9486549
11
147.0082012
21
-142.6726675
0
LINE
8
0
10
125.778586
20
-126.0862743
11
128.100197
21
-144.9942785
0
LINE
8
0
10
140.0433682
20
-85.9486549
11
121.135364
21
-88.2702659
0
LINE
8
0
10
121.135364
20
-88.2702659
11
123.456975
21
-107.1782701
0
LINE
8
0
10
146.1349349
20
-128.871416
11
165.1849349
21
-128.871416
0
LINE
8
0
10
165.1849349
20
-128.871416
11
165.1849349
21
-71.721416
0
LINE
8
0
10
146.1349349
20
-128.871416
11
146.1349349
21
-71.721416
0
LINE
8
0
10
165.1849349
20
-71.721416
11
146.1349349
21
-71.721416
0
LINE
8
0
10
165.8197721
20
-123.2425121
11
184.7474712
21
-124.8984712
0
LINE
8
0
10
167.480089
20
-104.2650032
11
165.8197721
21
-123.2425121
0
LINE
8
0
10
169.1404059
20
-85.2874941
11
167.480089
21
-104.265003
0
LINE
8
0
10
189.1141048
20
-75.5613056
11
189.7782316
21
-67.970302
0
LINE
8
0
10
189.7782316
20
-67.970302
11
170.8007227
21
-66.3099851
0
LINE
8
0
10
170.8007227
20
-66.3099851
11
169.1404058
21
-85.287494
0
LINE
8
0
10
184.0833444
20
-132.4894747
11
203.0110438
21
-134.1454338
0
LINE
8
0
10
184.7474712
20
-124.8984712
11
184.0833444
21
-132.4894747
0
LINE
8
0
10
207.8757723
20
-79.1150156
11
208.041804
21
-77.2172647
0
LINE
8
0
10
208.041804
20
-77.2172647
11
189.1141048
21
-75.5613056
0
LINE
8
0
10
202.8450121
20
-136.0431847
11
221.822521
21
-137.7035016
0
LINE
8
0
10
221.822521
20
-137.7035016
11
223.4828379
21
-118.7259927
0
LINE
8
0
10
203.0110438
20
-134.1454338
11
202.8450121
21
-136.0431847
0
LINE
8
0
10
223.4828378
20
-118.7259926
11
225.1431547
21
-99.7484837
0
LINE
8
0
10
225.1431547
20
-99.7484836
11
226.8034716
21
-80.7709747
0
LINE
8
0
10
226.8034716
20
-80.7709747
11
207.8757723
21
-79.1150156
0
LINE
8
0
10
189.9984792
20
-154.1284517
11
208.7590669
21
-157.4364494
0
LINE
8
0
10
212.0670646
20
-138.6758617
11
193.3064769
21
-135.367864
0
LINE
8
0
10
193.3064769
20
-135.367864
11
189.9984792
21
-154.1284517
0
LINE
8
0
10
208.7590669
20
-157.4364495
11
227.5196546
21
-160.7444472
0
LINE
8
0
10
227.5196546
20
-160.7444472
11
230.8276523
21
-141.9838595
0
LINE
8
0
10
230.8276523
20
-141.9838595
11
212.0670646
21
-138.6758618
0
ENDSEC
0
EOF