0
SECTION
2
HEADER
9
$INSUNITS
70
4
0
ENDSEC
0
SECTION
2
TABLES
0
TABLE
2
LTYPE
0
LTYPE
72
65
70
64
2
CONTINUOUS
3
______
73
0
40
0
0
ENDTAB
0
TABLE
2
LAYER
0
ENDTAB
0
ENDSEC
0
SECTION
2
ENTITIES
0
LINE
8
0
10
124.5425704
20
-135.9438917
11
207.7175703
21
-135.9438917
0
LINE
8
0
10
229.7675703
20
-135.9438917
11
229.7845102
21
-135.9438917
0
LINE
8
0
10
251.9607373
20
-135.9438917
11
253.0350704
21
-135.9438917
0
LINE
8
0
10
254.0350704
20
-134.9438917
11
254.0350704
21
-55.0288917
0
LINE
8
0
10
253.0350704
20
-54.0288917
11
196.4800704
21
-54.0288917
0
LINE
8
0
10
174.4300704
20
-54.0288917
11
124.5425704
21
-54.0288917
0
LINE
8
0
10
123.5425704
20
-55.0288917
11
123.5425704
21
-96.4506901
0
LINE
8
0
10
123.5425704
20
-118.9933002
11
123.5425704
21
-134.9438917
0
ARC
8
0
10
253.0350704
20
-134.9438917
40
1
50
270
51
0
0
ARC
8
0
10
253.0350704
20
-55.0288917
40
1
50
0
51
90
0
ARC
8
0
10
124.5425704
20
-55.0288917
40
1
50
90
51
180
0
ARC
8
0
10
124.5425704
20
-134.9438917
40
1
50
180
51
270
0
LINE
8
0
10
117.4231368
20
-119.6765774
11
122.9386146
21
-118.5042264
0
LINE
8
0
10
123.1465262
20
-96.9397639
11
113.0465958
21
-99.0865704
0
LINE
8
0
10
112.6614778
20
-99.6796
11
116.8301072
21
-119.2914594
0
LINE
8
0
10
174.9300704
20
-53.5288917
11
174.9300704
21
-50.6713917
0
LINE
8
0
10
195.9800704
20
-53.5288917
11
195.9800704
21
-50.6713917
0
LINE
8
0
10
195.4800704
20
-50.1713917
11
175.4300704
21
-50.1713917
0
LINE
8
0
10
208.7175703
20
-142.6588917
11
228.5716876
21
-142.6588917
0
LINE
8
0
10
229.2675703
20
-137.8731376
11
229.2675703
21
-136.4438917
0
LINE
8
0
10
208.2175703
20
-136.4438917
11
208.2175703
21
-142.1588917
0
LINE
8
0
10
228.7010971
20
-142.6759288
11
247.8787018
21
-147.8145525
0
LINE
8
0
10
248.4910742
20
-147.4609991
11
251.4777744
21
-136.3144822
0
LINE
8
0
10
229.7845102
20
-135.9438917
11
229.2675703
21
-137.8731376
0
ARC
8
0
10
207.7175703
20
-136.4438917
40
0.5
50
0
51
90
0
ARC
8
0
10
208.7175703
20
-142.1588917
40
0.5
50
180
51
270
0
ARC
8
0
10
228.5716876
20
-143.1588917
40
0.5
50
75.0000021
51
90
0
ARC
8
0
10
248.0081113
20
-147.3315896
40
0.5
50
255.0000021
51
345.0000021
0
ARC
8
0
10
251.9607373
20
-136.4438917
40
0.5
50
90
51
165.0000021
0
ARC
8
0
10
196.4800704
20
-53.5288917
40
0.5
50
180
51
270
0
ARC
8
0
10
195.4800704
20
-50.6713917
40
0.5
50
0
51
90
0
ARC
8
0
10
175.4300704
20
-50.6713917
40
0.5
50
90
51
180
0
ARC
8
0
10
174.4300704
20
-53.5288917
40
0.5
50
270
51
0
0
ARC
8
0
10
123.0425704
20
-96.4506901
40
0.5
50
282.0000005
51
0
0
ARC
8
0
10
113.1505516
20
-99.5756441
40
0.5
50
102.0000005
51
192.0000005
0
ARC
8
0
10
117.3191809
20
-119.1875036
40
0.5
50
192.0000005
51
282.0000005
0
ARC
8
0
10
123.0425704
20
-118.9933002
40
0.5
50
0
51
102.0000005
0
ARC
8
0
10
229.7675703
20
-136.4438917
40
0.5
50
90
51
180
0
LINE
8
0
10
117.704299
20
-118.594474
11
136.2891033
21
-114.6441519
0
LINE
8
0
10
132.3283856
20
-96.0104401
11
113.7435812
21
-99.9607622
0
LINE
8
0
10
113.7435812
20
-99.9607622
11
117.704299
21
-118.594474
0
LINE
8
0
10
140.2498211
20
-133.2778637
11
158.8835329
21
-129.3171459
0
LINE
8
0
10
147.0013797
20
-73.4160105
11
158.8835329
21
-129.3171459
0
LINE
8
0
10
136.2891033
20
-114.6441519
11
140.2498211
21
-133.2778637
0
LINE
8
0
10
147.0013797
20
-73.4160105
11
128.3676679
21
-77.3767283
0
LINE
8
0
10
128.3676679
20
-77.3767283
11
132.3283857
21
-96.0104401
0
LINE
8
0
10
156.8107314
20
-115.6445225
11
175.7882403
21
-113.9842056
0
LINE
8
0
10
175.7882403
20
-113.9842056
11
174.1279234
21
-95.0066967
0
LINE
8
0
10
155.1504145
20
-96.6670136
11
156.8107314
21
-115.6445225
0
LINE
8
0
10
174.1279234
20
-95.0066966
11
172.4676065
21
-76.0291877
0
LINE
8
0
10
153.4900976
20
-77.6895046
11
155.1504145
21
-96.6670135
0
LINE
8
0
10
172.4676065
20
-76.0291876
11
170.8072896
21
-57.0516787
0
LINE
8
0
10
170.8072896
20
-57.0516787
11
151.8297807
21
-58.7119956
0
LINE
8
0
10
151.8297807
20
-58.7119956
11
153.4900976
21
-77.6895045
0
LINE
8
0
10
175.9300704
20
-108.3213917
11
194.9300703
21
-108.3213917
0
LINE
8
0
10
175.9300704
20
-108.3213917
11
175.9300704
21
-51.1713917
0
LINE
8
0
10
194.9800704
20
-60.6963917
11
194.9800704
21
-51.1713917
0
LINE
8
0
10
194.9800704
20
-51.1713917
11
175.9300704
21
-51.1713917
0
LINE
8
0
10
194.9300703
20
-117.8463917
11
213.9300704
21
-117.8463917
0
LINE
8
0
10
194.9300703
20
-108.3213917
11
194.9300703
21
-117.8463917
0
LINE
8
0
10
213.9800703
20
-64.5063917
11
213.9800703
21
-60.6963917
0
LINE
8
0
10
213.9800703
20
-60.6963917
11
194.9800704
21
-60.6963917
0
LINE
8
0
10
213.9300704
20
-121.6563917
11
232.9800704
21
-121.6563917
0
LINE
8
0
10
232.9800704
20
-121.6563917
11
232.9800704
21
-83.5563917
0
LINE
8
0
10
213.9300704
20
-117.8463917
11
213.9300704
21
-121.6563917
0
LINE
8
0
10
232.9800703
20
-83.5563917
11
232.9800703
21
-64.5063917
0
LINE
8
0
10
232.9800703
20
-64.5063917
11
213.9800703
21
-64.5063917
0
LINE
8
0
10
209.2175703
20
-141.6588917
11
228.2675703
21
-141.6588917
0
LINE
8
0
10
228.2675703
20
-141.6588917
11
228.2675703
21
-122.6088917
0
LINE
8
0
10
228.2675703
20
-122.6088917
11
209.2175703
21
-122.6088917
0
LINE
8
0
10
209.2175703
20
-122.6088917
11
209.2175703
21
-141.6588917
0
LINE
8
0
10
229.2536709
20
-141.7887143
11
247.6545579
21
-146.7192171
0
LINE
8
0
10
247.6545579
20
-146.7192171
11
252.5850607
21
-128.3183301
0
LINE
8
0
10
252.5850607
20
-128.3183301
11
234.1841737
21
-123.3878273
0
LINE
8
0
10
234.1841737
20
-123.3878273
11
229.2536709
21
-141.7887143
0
ENDSEC
0
EOF