0
SECTION
2
HEADER
9
$INSUNITS
70
4
0
ENDSEC
0
SECTION
2
TABLES
0
TABLE
2
LTYPE
0
LTYPE
72
65
70
64
2
CONTINUOUS
3
______
73
0
40
0
0
ENDTAB
0
TABLE
2
LAYER
0
ENDTAB
0
ENDSEC
0
SECTION
2
ENTITIES
0
LINE
8
0
10
113.4937092
20
-122.6300502
11
132.2050566
21
-119.3307348
0
LINE
8
0
10
128.8970588
20
-100.5701471
11
110.1857115
21
-103.8694625
0
LINE
8
0
10
110.1857115
20
-103.8694625
11
113.4937092
21
-122.6300502
0
LINE
8
0
10
135.5130543
20
-138.0913225
11
154.273642
21
-134.7833248
0
LINE
8
0
10
154.273642
20
-134.7833248
11
150.9656443
21
-116.0227371
0
LINE
8
0
10
132.2050566
20
-119.3307348
11
135.5130543
21
-138.0913225
0
LINE
8
0
10
150.9656442
20
-116.0227371
11
147.6576465
21
-97.2621494
0
LINE
8
0
10
147.6576464
20
-97.2621494
11
144.3496487
21
-78.5015617
0
LINE
8
0
10
144.3496487
20
-78.5015617
11
125.589061
21
-81.8095594
0
LINE
8
0
10
125.589061
20
-81.8095594
11
128.8970587
21
-100.5701471
0
LINE
8
0
10
152.5651065
20
-121.4378572
11
171.5426154
21
-119.7775403
0
LINE
8
0
10
171.5426154
20
-119.7775403
11
169.8822985
21
-100.8000314
0
LINE
8
0
10
150.9047896
20
-102.4603483
11
152.5651065
21
-121.4378572
0
LINE
8
0
10
169.8822985
20
-100.8000313
11
168.2219816
21
-81.8225224
0
LINE
8
0
10
149.2444727
20
-83.4828393
11
150.9047896
21
-102.4603482
0
LINE
8
0
10
168.2219816
20
-81.8225223
11
166.5616647
21
-62.8450134
0
LINE
8
0
10
166.5616647
20
-62.8450134
11
147.5841558
21
-64.5053303
0
LINE
8
0
10
147.5841558
20
-64.5053303
11
149.2444727
21
-83.4828392
0
LINE
8
0
10
171.6844454
20
-114.1147264
11
190.6844454
21
-114.1147264
0
LINE
8
0
10
171.6844454
20
-95.0647264
11
171.6844454
21
-114.1147264
0
LINE
8
0
10
171.6844455
20
-95.0647264
11
171.6844455
21
-56.9647264
0
LINE
8
0
10
190.7344455
20
-66.4897263
11
190.7344455
21
-56.9647264
0
LINE
8
0
10
190.7344455
20
-56.9647264
11
171.6844455
21
-56.9647264
0
LINE
8
0
10
190.6844454
20
-123.6397264
11
209.6844455
21
-123.6397264
0
LINE
8
0
10
190.6844454
20
-114.1147264
11
190.6844454
21
-123.6397264
0
LINE
8
0
10
190.7344455
20
-85.5397264
11
209.6844455
21
-85.5397264
0
LINE
8
0
10
209.7344454
20
-70.2997263
11
209.7344454
21
-66.4897263
0
LINE
8
0
10
209.7344454
20
-66.4897263
11
190.7344455
21
-66.4897263
0
LINE
8
0
10
209.6844455
20
-127.4497263
11
228.7344455
21
-127.4497263
0
LINE
8
0
10
228.7344455
20
-127.4497263
11
228.7344455
21
-70.2997263
0
LINE
8
0
10
209.6844455
20
-123.6397264
11
209.6844455
21
-127.4497263
0
LINE
8
0
10
228.7344455
20
-70.2997263
11
209.7344454
21
-70.2997263
0
LINE
8
0
10
204.9719454
20
-147.4522264
11
224.0219454
21
-147.4522264
0
LINE
8
0
10
224.0219454
20
-147.4522264
11
224.0219454
21
-128.4022264
0
LINE
8
0
10
224.0219454
20
-128.4022264
11
204.9719454
21
-128.4022264
0
LINE
8
0
10
204.9719454
20
-128.4022264
11
204.9719454
21
-147.4522264
0
LINE
8
0
10
225.008046
20
-147.582049
11
243.408933
21
-152.5125518
0
LINE
8
0
10
243.408933
20
-152.5125518
11
248.3394358
21
-134.1116648
0
LINE
8
0
10
248.3394358
20
-134.1116648
11
229.9385488
21
-129.181162
0
LINE
8
0
10
229.9385488
20
-129.181162
11
225.008046
21
-147.582049
0
ENDSEC
0
EOF