0
SECTION
2
HEADER
9
$INSUNITS
70
4
0
ENDSEC
0
SECTION
2
TABLES
0
TABLE
2
LTYPE
0
LTYPE
72
65
70
64
2
CONTINUOUS
3
______
73
0
40
0
0
ENDTAB
0
TABLE
2
LAYER
0
ENDTAB
0
ENDSEC
0
SECTION
2
ENTITIES
0
LINE
8
0
10
117.704299
20
-118.594474
11
136.2891033
21
-114.6441518
0
LINE
8
0
10
132.3283856
20
-96.01044
11
113.7435812
21
-99.9607622
0
LINE
8
0
10
113.7435812
20
-99.9607622
11
117.704299
21
-118.594474
0
LINE
8
0
10
139.0616058
20
-127.6877502
11
157.6953176
21
-123.7270324
0
LINE
8
0
10
145.8131644
20
-67.825897
11
157.6953176
21
-123.7270324
0
LINE
8
0
10
136.2891033
20
-114.6441518
11
139.0616058
21
-127.6877502
0
LINE
8
0
10
127.1794526
20
-71.7866148
11
132.3283856
21
-96.01044
0
LINE
8
0
10
145.8131644
20
-67.825897
11
127.1794526
21
-71.7866148
0
LINE
8
0
10
155.6225161
20
-110.054409
11
174.600025
21
-108.3940921
0
LINE
8
0
10
174.600025
20
-108.3940921
11
172.9397081
21
-89.4165832
0
LINE
8
0
10
153.9621992
20
-91.0769001
11
155.6225161
21
-110.054409
0
LINE
8
0
10
172.9397081
20
-89.4165831
11
171.2793912
21
-70.4390742
0
LINE
8
0
10
152.3018823
20
-72.0993911
11
153.9621992
21
-91.0769
0
LINE
8
0
10
171.2793912
20
-70.4390741
11
169.6190743
21
-51.4615652
0
LINE
8
0
10
169.6190743
20
-51.4615652
11
150.6415654
21
-53.1218821
0
LINE
8
0
10
150.6415654
20
-53.1218821
11
152.3018823
21
-72.099391
0
LINE
8
0
10
174.7418551
20
-102.7312782
11
193.7418549
21
-102.7312782
0
LINE
8
0
10
174.7418551
20
-102.7312782
11
174.7418551
21
-45.5812782
0
LINE
8
0
10
193.7918551
20
-53.2012782
11
193.7918551
21
-45.5812782
0
LINE
8
0
10
193.7918551
20
-45.5812782
11
174.7418551
21
-45.5812782
0
LINE
8
0
10
193.7418549
20
-110.3512782
11
212.741855
21
-110.3512782
0
LINE
8
0
10
193.7418549
20
-102.7312782
11
193.7418549
21
-110.3512782
0
LINE
8
0
10
212.7918549
20
-55.1062782
11
212.7918549
21
-53.2012782
0
LINE
8
0
10
212.7918549
20
-53.2012782
11
193.7918551
21
-53.2012782
0
LINE
8
0
10
212.741855
20
-112.2562782
11
231.791855
21
-112.2562782
0
LINE
8
0
10
231.791855
20
-112.2562782
11
231.791855
21
-55.1062782
0
LINE
8
0
10
212.741855
20
-110.3512782
11
212.741855
21
-112.2562782
0
LINE
8
0
10
231.791855
20
-55.1062782
11
212.7918549
21
-55.1062782
0
LINE
8
0
10
202.3143549
20
-132.2587782
11
221.3643549
21
-132.2587782
0
LINE
8
0
10
221.3643549
20
-132.2587782
11
221.3643549
21
-113.2087782
0
LINE
8
0
10
221.3643549
20
-113.2087782
11
202.3143549
21
-113.2087782
0
LINE
8
0
10
202.3143549
20
-113.2087782
11
202.3143549
21
-132.2587782
0
LINE
8
0
10
222.3504555
20
-132.3886008
11
240.7513425
21
-137.3191036
0
LINE
8
0
10
240.7513425
20
-137.3191036
11
245.6818453
21
-118.9182166
0
LINE
8
0
10
245.6818453
20
-118.9182166
11
227.2809583
21
-113.9877138
0
LINE
8
0
10
227.2809583
20
-113.9877138
11
222.3504555
21
-132.3886008
0
ENDSEC
0
EOF