0
SECTION
2
HEADER
9
$INSUNITS
70
4
0
ENDSEC
0
SECTION
2
TABLES
0
TABLE
2
LTYPE
0
LTYPE
72
65
70
64
2
CONTINUOUS
3
______
73
0
40
0
0
ENDTAB
0
TABLE
2
LAYER
0
ENDTAB
0
ENDSEC
0
SECTION
2
ENTITIES
0
LINE
8
0
10
116.934063
20
-119.7805332
11
135.5188675
21
-115.8302111
0
LINE
8
0
10
131.1423264
20
-95.2402041
11
112.557522
21
-99.1905262
0
LINE
8
0
10
112.557522
20
-99.1905262
11
116.934063
21
-119.7805332
0
LINE
8
0
10
139.4795851
20
-134.4639229
11
160.0695921
21
-130.0873819
0
LINE
8
0
10
160.0695921
20
-130.0873819
11
157.2056913
21
-116.6137879
0
LINE
8
0
10
135.5188675
20
-115.8302111
11
139.4795851
21
-134.4639229
0
LINE
8
0
10
147.7716157
20
-72.2299513
11
154.9725436
21
-106.1076537
0
LINE
8
0
10
147.7716157
20
-72.2299513
11
127.1816087
21
-76.6064923
0
LINE
8
0
10
127.1816087
20
-76.6064923
11
131.1423264
21
-95.2402041
0
LINE
8
0
10
157.2056913
20
-116.6137879
11
176.8715908
21
-114.8932446
0
LINE
8
0
10
176.8715908
20
-114.8932446
11
176.3841168
21
-109.3213917
0
LINE
8
0
10
150.7464302
20
-57.8029566
11
154.9725436
21
-106.1076537
0
LINE
8
0
10
171.7163286
20
-55.9683282
11
174.9300704
21
-92.701565
0
LINE
8
0
10
171.7163286
20
-55.9683282
11
150.7464302
21
-57.8029566
0
LINE
8
0
10
176.3841168
20
-109.3213917
11
193.9300703
21
-109.3213917
0
LINE
8
0
10
174.9300704
20
-92.701565
11
174.9300704
21
-50.1713917
0
LINE
8
0
10
195.9800704
20
-59.6963917
11
195.9800704
21
-50.1713917
0
LINE
8
0
10
195.9800704
20
-50.1713917
11
174.9300704
21
-50.1713917
0
LINE
8
0
10
193.9300703
20
-118.8463917
11
212.9300704
21
-118.8463917
0
LINE
8
0
10
193.9300703
20
-109.3213917
11
193.9300703
21
-118.8463917
0
LINE
8
0
10
214.9800703
20
-63.5063917
11
214.9800703
21
-59.6963917
0
LINE
8
0
10
214.9800703
20
-59.6963917
11
195.9800704
21
-59.6963917
0
LINE
8
0
10
229.2675703
20
-122.6563917
11
233.3448851
21
-122.6563917
0
LINE
8
0
10
233.9800704
20
-122.2978618
11
233.9800704
21
-63.5063917
0
LINE
8
0
10
212.9300704
20
-118.8463917
11
212.9300704
21
-121.6088917
0
LINE
8
0
10
233.9800703
20
-63.5063917
11
214.9800703
21
-63.5063917
0
LINE
8
0
10
208.2175703
20
-142.6588917
11
228.6375138
21
-142.6588917
0
LINE
8
0
10
229.2675703
20
-137.8731376
11
229.2675703
21
-122.6563917
0
LINE
8
0
10
212.9300704
20
-121.6088917
11
208.2175703
21
-121.6088917
0
LINE
8
0
10
208.2175703
20
-121.6088917
11
208.2175703
21
-142.6588917
0
LINE
8
0
10
228.6375138
20
-142.6588917
11
248.3616647
21
-147.943962
0
LINE
8
0
10
248.3616647
20
-147.943962
11
253.8098056
21
-127.6112233
0
LINE
8
0
10
253.8098056
20
-127.6112233
11
233.9800704
21
-122.2978618
0
LINE
8
0
10
233.3448851
20
-122.6563917
11
229.2675703
21
-137.8731376
0
ENDSEC
0
EOF