0
SECTION
2
HEADER
9
$INSUNITS
70
4
0
ENDSEC
0
SECTION
2
TABLES
0
TABLE
2
LTYPE
0
LTYPE
72
65
70
64
2
CONTINUOUS
3
______
73
0
40
0
0
ENDTAB
0
TABLE
2
LAYER
0
ENDTAB
0
ENDSEC
0
SECTION
2
ENTITIES
0
LINE
8
0
10
112.6825497
20
-123.7885062
11
131.393897
21
-120.4891908
0
LINE
8
0
10
127.7386028
20
-99.7589876
11
109.0272555
21
-103.058303
0
LINE
8
0
10
109.0272555
20
-103.058303
11
112.6825497
21
-123.7885062
0
LINE
8
0
10
134.7018948
20
-139.2497785
11
155.432098
21
-135.5944843
0
LINE
8
0
10
155.432098
20
-135.5944843
11
153.1045809
21
-122.3944792
0
LINE
8
0
10
131.393897
20
-120.4891908
11
134.7018948
21
-139.2497785
0
LINE
8
0
10
145.1608082
20
-77.3431057
11
150.2075541
21
-105.9646235
0
LINE
8
0
10
145.1608082
20
-77.3431057
11
124.430605
21
-80.9983999
0
LINE
8
0
10
124.430605
20
-80.9983999
11
127.7386028
21
-99.7589876
0
LINE
8
0
10
153.1045809
20
-122.3944792
11
172.6259659
21
-120.6865793
0
LINE
8
0
10
172.6259659
20
-120.6865793
11
172.1384919
21
-115.1147264
0
LINE
8
0
10
146.5008053
20
-63.5962913
11
150.2075541
21
-105.9646235
0
LINE
8
0
10
167.4707037
20
-61.7616629
11
170.6844454
21
-98.4948986
0
LINE
8
0
10
167.4707037
20
-61.7616629
11
146.5008053
21
-63.5962913
0
LINE
8
0
10
172.1384919
20
-115.1147264
11
189.6844454
21
-115.1147264
0
LINE
8
0
10
170.6844454
20
-94.0647264
11
170.6844454
21
-98.4948986
0
LINE
8
0
10
170.6844455
20
-94.0647264
11
170.6844455
21
-55.9647264
0
LINE
8
0
10
191.7344455
20
-65.4897263
11
191.7344455
21
-55.9647264
0
LINE
8
0
10
191.7344455
20
-55.9647264
11
170.6844455
21
-55.9647264
0
LINE
8
0
10
189.6844454
20
-124.6397264
11
208.6844455
21
-124.6397264
0
LINE
8
0
10
189.6844454
20
-115.1147264
11
189.6844454
21
-124.6397264
0
LINE
8
0
10
210.7344454
20
-69.2997263
11
210.7344454
21
-65.4897263
0
LINE
8
0
10
210.7344454
20
-65.4897263
11
191.7344455
21
-65.4897263
0
LINE
8
0
10
225.0219454
20
-128.4497263
11
229.0992602
21
-128.4497263
0
LINE
8
0
10
229.7344455
20
-128.0911965
11
229.7344455
21
-69.2997263
0
LINE
8
0
10
208.6844455
20
-124.6397264
11
208.6844455
21
-127.4022264
0
LINE
8
0
10
229.7344455
20
-69.2997263
11
210.7344454
21
-69.2997263
0
LINE
8
0
10
203.9719454
20
-148.4522264
11
224.3918889
21
-148.4522264
0
LINE
8
0
10
225.0219454
20
-143.6664723
11
225.0219454
21
-128.4497263
0
LINE
8
0
10
208.6844455
20
-127.4022264
11
203.9719454
21
-127.4022264
0
LINE
8
0
10
203.9719454
20
-127.4022264
11
203.9719454
21
-148.4522264
0
LINE
8
0
10
224.3918889
20
-148.4522264
11
244.1160398
21
-153.7372967
0
LINE
8
0
10
244.1160398
20
-153.7372967
11
249.5641807
21
-133.404558
0
LINE
8
0
10
249.5641807
20
-133.404558
11
229.7344455
21
-128.0911965
0
LINE
8
0
10
229.0992602
20
-128.4497263
11
225.0219454
21
-143.6664723
0
ENDSEC
0
EOF