0
SECTION
2
HEADER
9
$INSUNITS
70
4
0
ENDSEC
0
SECTION
2
TABLES
0
TABLE
2
LTYPE
0
LTYPE
72
65
70
64
2
CONTINUOUS
3
______
73
0
40
0
0
ENDTAB
0
TABLE
2
LAYER
0
ENDTAB
0
ENDSEC
0
SECTION
2
ENTITIES
0
LINE
8
0
10
106.0495323
20
-129.5162073
11
124.9079092
21
-127.2006898
0
LINE
8
0
10
122.3425595
20
-106.3075933
11
103.4841826
21
-108.6231108
0
LINE
8
0
10
103.4841826
20
-108.6231108
11
106.0495323
21
-129.5162073
0
LINE
8
0
10
127.2295202
20
-146.108694
11
148.1226167
21
-143.5433443
0
LINE
8
0
10
148.1226167
20
-143.5433443
11
146.443915
21
-129.871416
0
LINE
8
0
10
124.9079092
20
-127.2006898
11
127.2295202
21
-146.108694
0
LINE
8
0
10
140.914045
20
-84.8342394
11
145.1349349
21
-119.2106289
0
LINE
8
0
10
140.914045
20
-84.8342394
11
120.0209485
21
-87.3995891
0
LINE
8
0
10
120.0209485
20
-87.3995891
11
122.3425595
21
-106.3075933
0
LINE
8
0
10
146.443915
20
-129.871416
11
166.1849349
21
-129.871416
0
LINE
8
0
10
166.1849349
20
-129.871416
11
166.1849349
21
-124.2782796
0
LINE
8
0
10
145.1349349
20
-119.2106289
11
145.1349349
21
-70.721416
0
LINE
8
0
10
166.1849349
20
-107.5949685
11
166.1849349
21
-70.721416
0
LINE
8
0
10
166.1849349
20
-70.721416
11
145.1349349
21
-70.721416
0
LINE
8
0
10
166.1849349
20
-124.2782796
11
183.6641207
21
-125.8075102
0
LINE
8
0
10
166.1849349
20
-107.5949685
11
168.0570553
21
-86.196533
0
LINE
8
0
10
168.2313669
20
-84.2041436
11
168.0570553
21
-86.196533
0
LINE
8
0
10
190.1974554
20
-74.6522666
11
190.8615821
21
-67.061263
0
LINE
8
0
10
190.8615821
20
-67.061263
11
169.8916837
21
-65.2266346
0
LINE
8
0
10
169.8916837
20
-65.2266346
11
168.2313669
21
-84.2041436
0
LINE
8
0
10
182.9999939
20
-133.3985137
11
192.4918724
21
-134.2289455
0
LINE
8
0
10
192.7186317
20
-134.2487843
11
201.9276933
21
-135.0544728
0
LINE
8
0
10
183.6641207
20
-125.8075102
11
182.9999939
21
-133.3985137
0
LINE
8
0
10
208.9591228
20
-78.2059766
11
209.1251545
21
-76.3082257
0
LINE
8
0
10
209.1251545
20
-76.3082257
11
190.1974554
21
-74.6522666
0
LINE
8
0
10
214.2439916
20
-138.0442861
11
222.73156
21
-138.7868521
0
LINE
8
0
10
222.73156
20
-138.7868521
11
224.3918768
21
-119.8093431
0
LINE
8
0
10
224.3918768
20
-119.8093431
11
224.5661884
21
-117.8169537
0
LINE
8
0
10
201.9276933
20
-135.0544728
11
201.8572047
21
-135.8601613
0
LINE
8
0
10
224.5661884
20
-117.8169537
11
227.8868221
21
-79.8619357
0
LINE
8
0
10
227.8868221
20
-79.8619357
11
208.9591228
21
-78.2059766
0
LINE
8
0
10
188.8400232
20
-154.9396112
11
228.3308141
21
-161.9029032
0
LINE
8
0
10
201.8572047
20
-135.8601613
11
192.7186317
21
-134.2487843
0
LINE
8
0
10
192.4918724
20
-134.2289455
11
188.8400232
21
-154.9396112
0
LINE
8
0
10
228.3308141
20
-161.9029032
11
231.9861083
21
-141.1727
0
LINE
8
0
10
231.9861083
20
-141.1727
11
214.2439916
21
-138.0442861
0
ENDSEC
0
EOF